  0
SECTION
  2
HEADER
  9
$ACADVER
  1
AC1015
  9
$ACADMAINTVER
 70
     6
  9
$DWGCODEPAGE
  3
ANSI_950
  9
$INSBASE
 10
0.0
 20
0.0
 30
0.0
  9
$EXTMIN
 10
32.2845621254
 20
67.1509633978
 30
0.0
  9
$EXTMAX
 10
79.2736182543
 20
114.1134816745
 30
0.0
  9
$LIMMIN
 10
0.0
 20
0.0
  9
$LIMMAX
 10
420.0
 20
297.0
  9
$ORTHOMODE
 70
     0
  9
$REGENMODE
 70
     1
  9
$FILLMODE
 70
     1
  9
$QTEXTMODE
 70
     0
  9
$MIRRTEXT
 70
     1
  9
$LTSCALE
 40
1.0
  9
$ATTMODE
 70
     1
  9
$TEXTSIZE
 40
3.5
  9
$TRACEWID
 40
1.0
  9
$TEXTSTYLE
  7
Standard
  9
$CLAYER
  8
0
  9
$CELTYPE
  6
ByLayer
  9
$CECOLOR
 62
   256
  9
$CELTSCALE
 40
1.0
  9
$DISPSILH
 70
     0
  9
$DIMSCALE
 40
1.0
  9
$DIMASZ
 40
3.302
  9
$DIMEXO
 40
1.0
  9
$DIMDLI
 40
3.75
  9
$DIMRND
 40
0.0
  9
$DIMDLE
 40
0.0
  9
$DIMEXE
 40
1.0
  9
$DIMTP
 40
0.0
  9
$DIMTM
 40
0.0
  9
$DIMTXT
 40
3.5
  9
$DIMCEN
 40
2.5
  9
$DIMTSZ
 40
0.0
  9
$DIMTOL
 70
     0
  9
$DIMLIM
 70
     0
  9
$DIMTIH
 70
     1
  9
$DIMTOH
 70
     1
  9
$DIMSE1
 70
     0
  9
$DIMSE2
 70
     0
  9
$DIMTAD
 70
     1
  9
$DIMZIN
 70
     0
  9
$DIMBLK
  1

  9
$DIMASO
 70
     1
  9
$DIMSHO
 70
     1
  9
$DIMPOST
  1

  9
$DIMAPOST
  1

  9
$DIMALT
 70
     0
  9
$DIMALTD
 70
     3
  9
$DIMALTF
 40
0.0393700787
  9
$DIMLFAC
 40
1.0
  9
$DIMTOFL
 70
     1
  9
$DIMTVP
 40
0.0
  9
$DIMTIX
 70
     0
  9
$DIMSOXD
 70
     0
  9
$DIMSAH
 70
     0
  9
$DIMBLK1
  1

  9
$DIMBLK2
  1

  9
$DIMSTYLE
  2
ISO-25
  9
$DIMCLRD
 70
     0
  9
$DIMCLRE
 70
     0
  9
$DIMCLRT
 70
     0
  9
$DIMTFAC
 40
1.0
  9
$DIMGAP
 40
1.524
  9
$DIMJUST
 70
     0
  9
$DIMSD1
 70
     0
  9
$DIMSD2
 70
     0
  9
$DIMTOLJ
 70
     0
  9
$DIMTZIN
 70
     0
  9
$DIMALTZ
 70
     0
  9
$DIMALTTZ
 70
     0
  9
$DIMUPT
 70
     0
  9
$DIMDEC
 70
     2
  9
$DIMTDEC
 70
     2
  9
$DIMALTU
 70
     2
  9
$DIMALTTD
 70
     3
  9
$DIMTXSTY
  7
Standard
  9
$DIMAUNIT
 70
     0
  9
$DIMADEC
 70
     2
  9
$DIMALTRND
 40
0.0
  9
$DIMAZIN
 70
     0
  9
$DIMDSEP
 70
    44
  9
$DIMATFIT
 70
     3
  9
$DIMFRAC
 70
     0
  9
$DIMLDRBLK
  1

  9
$DIMLUNIT
 70
     2
  9
$DIMLWD
 70
    -2
  9
$DIMLWE
 70
    -2
  9
$DIMTMOVE
 70
     0
  9
$LUNITS
 70
     2
  9
$LUPREC
 70
     2
  9
$SKETCHINC
 40
1.0
  9
$FILLETRAD
 40
10.0
  9
$AUNITS
 70
     0
  9
$AUPREC
 70
     2
  9
$MENU
  1
.
  9
$ELEVATION
 40
0.0
  9
$PELEVATION
 40
0.0
  9
$THICKNESS
 40
0.0
  9
$LIMCHECK
 70
     0
  9
$CHAMFERA
 40
0.0
  9
$CHAMFERB
 40
0.0
  9
$CHAMFERC
 40
0.0
  9
$CHAMFERD
 40
0.0
  9
$SKPOLY
 70
     0
  9
$TDCREATE
 40
2458934.691566077
  9
$TDUCREATE
 40
2458934.358232743
  9
$TDUPDATE
 40
2458934.691599722
  9
$TDUUPDATE
 40
2458934.358266389
  9
$TDINDWG
 40
0.0000000116
  9
$TDUSRTIMER
 40
0.0000000116
  9
$USRTIMER
 70
     1
  9
$ANGBASE
 50
0.0
  9
$ANGDIR
 70
     0
  9
$PDMODE
 70
     0
  9
$PDSIZE
 40
-1.0
  9
$PLINEWID
 40
0.0
  9
$SPLFRAME
 70
     0
  9
$SPLINETYPE
 70
     6
  9
$SPLINESEGS
 70
     8
  9
$HANDSEED
  5
1DC
  9
$SURFTAB1
 70
     6
  9
$SURFTAB2
 70
     6
  9
$SURFTYPE
 70
     6
  9
$SURFU
 70
     6
  9
$SURFV
 70
     6
  9
$UCSBASE
  2

  9
$UCSNAME
  2

  9
$UCSORG
 10
0.0
 20
0.0
 30
0.0
  9
$UCSXDIR
 10
1.0
 20
0.0
 30
0.0
  9
$UCSYDIR
 10
0.0
 20
1.0
 30
0.0
  9
$UCSORTHOREF
  2

  9
$UCSORTHOVIEW
 70
     0
  9
$UCSORGTOP
 10
0.0
 20
0.0
 30
0.0
  9
$UCSORGBOTTOM
 10
0.0
 20
0.0
 30
0.0
  9
$UCSORGLEFT
 10
0.0
 20
0.0
 30
0.0
  9
$UCSORGRIGHT
 10
0.0
 20
0.0
 30
0.0
  9
$UCSORGFRONT
 10
0.0
 20
0.0
 30
0.0
  9
$UCSORGBACK
 10
0.0
 20
0.0
 30
0.0
  9
$PUCSBASE
  2

  9
$PUCSNAME
  2

  9
$PUCSORG
 10
0.0
 20
0.0
 30
0.0
  9
$PUCSXDIR
 10
1.0
 20
0.0
 30
0.0
  9
$PUCSYDIR
 10
0.0
 20
1.0
 30
0.0
  9
$PUCSORTHOREF
  2

  9
$PUCSORTHOVIEW
 70
     0
  9
$PUCSORGTOP
 10
0.0
 20
0.0
 30
0.0
  9
$PUCSORGBOTTOM
 10
0.0
 20
0.0
 30
0.0
  9
$PUCSORGLEFT
 10
0.0
 20
0.0
 30
0.0
  9
$PUCSORGRIGHT
 10
0.0
 20
0.0
 30
0.0
  9
$PUCSORGFRONT
 10
0.0
 20
0.0
 30
0.0
  9
$PUCSORGBACK
 10
0.0
 20
0.0
 30
0.0
  9
$USERI1
 70
     0
  9
$USERI2
 70
     0
  9
$USERI3
 70
     0
  9
$USERI4
 70
     0
  9
$USERI5
 70
     0
  9
$USERR1
 40
0.0
  9
$USERR2
 40
0.0
  9
$USERR3
 40
0.0
  9
$USERR4
 40
0.0
  9
$USERR5
 40
0.0
  9
$WORLDVIEW
 70
     1
  9
$SHADEDGE
 70
     3
  9
$SHADEDIF
 70
    70
  9
$TILEMODE
 70
     1
  9
$MAXACTVP
 70
    64
  9
$PINSBASE
 10
0.0
 20
0.0
 30
0.0
  9
$PLIMCHECK
 70
     0
  9
$PEXTMIN
 10
1.0000000000E+20
 20
1.0000000000E+20
 30
1.0000000000E+20
  9
$PEXTMAX
 10
-1.0000000000E+20
 20
-1.0000000000E+20
 30
-1.0000000000E+20
  9
$PLIMMIN
 10
0.0
 20
0.0
  9
$PLIMMAX
 10
420.0
 20
297.0
  9
$UNITMODE
 70
     0
  9
$VISRETAIN
 70
     1
  9
$PLINEGEN
 70
     0
  9
$PSLTSCALE
 70
     1
  9
$TREEDEPTH
 70
  3020
  9
$CMLSTYLE
  2
Standard
  9
$CMLJUST
 70
     0
  9
$CMLSCALE
 40
20.0
  9
$PROXYGRAPHICS
 70
     1
  9
$MEASUREMENT
 70
     1
  9
$CELWEIGHT
370
    -1
  9
$ENDCAPS
280
     0
  9
$JOINSTYLE
280
     0
  9
$LWDISPLAY
290
     1
  9
$INSUNITS
 70
     4
  9
$HYPERLINKBASE
  1

  9
$STYLESHEET
  1

  9
$XEDIT
290
     1
  9
$CEPSNTYPE
380
     0
  9
$PSTYLEMODE
290
     1
  9
$FINGERPRINTGUID
  2
{DD154628-C48B-4EAD-9C88-25C8600479FF}
  9
$VERSIONGUID
  2
{FAEB1C32-E019-11D5-929B-00C0DF256EC4}
  9
$EXTNAMES
290
     1
  9
$PSVPSCALE
 40
0.0
  9
$OLESTARTUP
290
     0
  0
ENDSEC
  0
SECTION
  2
CLASSES
  0
CLASS
  1
ACDBDICTIONARYWDFLT
  2
AcDbDictionaryWithDefault
  3
ObjectDBX Classes
 90
        0
280
     0
281
     0
  0
CLASS
  1
VISUALSTYLE
  2
AcDbVisualStyle
  3
ObjectDBX Classes
 90
     4095
280
     0
281
     0
  0
CLASS
  1
MATERIAL
  2
AcDbMaterial
  3
ObjectDBX Classes
 90
     1153
280
     0
281
     0
  0
CLASS
  1
SCALE
  2
AcDbScale
  3
ObjectDBX Classes
 90
     1153
280
     0
281
     0
  0
CLASS
  1
TABLESTYLE
  2
AcDbTableStyle
  3
ObjectDBX Classes
 90
     4095
280
     0
281
     0
  0
CLASS
  1
MLEADERSTYLE
  2
AcDbMLeaderStyle
  3
ACDB_MLEADERSTYLE_CLASS
 90
     4095
280
     0
281
     0
  0
CLASS
  1
SUN
  2
AcDbSun
  3
SCENEOE
 90
     1153
280
     0
281
     0
  0
CLASS
  1
ACDBPLACEHOLDER
  2
AcDbPlaceHolder
  3
ObjectDBX Classes
 90
        0
280
     0
281
     0
  0
CLASS
  1
LAYOUT
  2
AcDbLayout
  3
ObjectDBX Classes
 90
        0
280
     0
281
     0
  0
ENDSEC
  0
SECTION
  2
TABLES
  0
TABLE
  2
VPORT
  5
8
330
0
100
AcDbSymbolTable
 70
     1
  0
VPORT
  5
29
330
8
100
AcDbSymbolTableRecord
100
AcDbViewportTableRecord
  2
*Active
 70
     0
 10
0.0
 20
0.0
 11
1.0
 21
1.0
 12
55.7790901898
 22
90.6322225362
 13
0.0
 23
0.0
 14
10.0
 24
10.0
 15
10.0
 25
10.0
 16
0.0
 26
0.0
 36
1.0
 17
0.0
 27
0.0
 37
0.0
 40
47.9017686422
 41
1.0005650858
 42
50.0
 43
0.0
 44
0.0
 50
0.0
 51
0.0
 71
     0
 72
   100
 73
     1
 74
     3
 75
     0
 76
     0
 77
     0
 78
     0
281
     0
 65
     1
110
0.0
120
0.0
130
0.0
111
1.0
121
0.0
131
0.0
112
0.0
122
1.0
132
0.0
 79
     0
146
0.0
  0
ENDTAB
  0
TABLE
  2
LTYPE
  5
5
330
0
100
AcDbSymbolTable
 70
     6
  0
LTYPE
  5
14
330
5
100
AcDbSymbolTableRecord
100
AcDbLinetypeTableRecord
  2
ByBlock
 70
     0
  3

 72
    65
 73
     0
 40
0.0
  0
LTYPE
  5
15
330
5
100
AcDbSymbolTableRecord
100
AcDbLinetypeTableRecord
  2
ByLayer
 70
     0
  3

 72
    65
 73
     0
 40
0.0
  0
LTYPE
  5
16
330
5
100
AcDbSymbolTableRecord
100
AcDbLinetypeTableRecord
  2
Continuous
 70
     0
  3
Solid line
 72
    65
 73
     0
 40
0.0
  0
LTYPE
  5
6E
330
5
100
AcDbSymbolTableRecord
100
AcDbLinetypeTableRecord
  2
HIDDEN
 70
     0
  3
Hidden __ __ __ __ __ __ __ __ __ __ __ __ __ __
 72
    65
 73
     2
 40
1.905
 49
1.27
 74
     0
 49
-0.635
 74
     0
  0
LTYPE
  5
6F
330
5
100
AcDbSymbolTableRecord
100
AcDbLinetypeTableRecord
  2
PHANTOM
 70
     0
  3
Phantom ______  __  __  ______  __  __  ______
 72
    65
 73
     6
 40
12.7
 49
6.35
 74
     0
 49
-1.27
 74
     0
 49
1.27
 74
     0
 49
-1.27
 74
     0
 49
1.27
 74
     0
 49
-1.27
 74
     0
  0
LTYPE
  5
70
330
5
100
AcDbSymbolTableRecord
100
AcDbLinetypeTableRecord
  2
CENTER
 70
     0
  3
Center ____ _ ____ _ ____ _ ____ _ ____ _ ____
 72
    65
 73
     4
 40
10.16
 49
6.35
 74
     0
 49
-1.27
 74
     0
 49
1.27
 74
     0
 49
-1.27
 74
     0
  0
LTYPE
  5
71
330
5
100
AcDbSymbolTableRecord
100
AcDbLinetypeTableRecord
  2
CENTERX2
 70
     0
  3
Center (2x) ________  __  ________  __  _____
 72
    65
 73
     4
 40
20.32
 49
12.7
 74
     0
 49
-2.54
 74
     0
 49
2.54
 74
     0
 49
-2.54
 74
     0
  0
LTYPE
  5
72
330
5
100
AcDbSymbolTableRecord
100
AcDbLinetypeTableRecord
  2
DOT2
 70
     0
  3
Dot (.5x) ........................................
 72
    65
 73
     2
 40
0.635
 49
0.0
 74
     0
 49
-0.635
 74
     0
  0
ENDTAB
  0
TABLE
  2
LAYER
  5
2
330
0
100
AcDbSymbolTable
 70
     1
  0
LAYER
  5
10
330
2
100
AcDbSymbolTableRecord
100
AcDbLayerTableRecord
  2
0
 70
     0
 62
     7
  6
Continuous
370
    -3
390
F
  0
ENDTAB
  0
TABLE
  2
STYLE
  5
3
330
0
100
AcDbSymbolTable
 70
     1
  0
STYLE
  5
11
330
3
100
AcDbSymbolTableRecord
100
AcDbTextStyleTableRecord
  2
Standard
 70
     0
 40
0.0
 41
1.0
 50
0.0
 71
     0
 42
3.5
  3
txt
  4

  0
ENDTAB
  0
TABLE
  2
VIEW
  5
6
330
0
100
AcDbSymbolTable
 70
     0
  0
ENDTAB
  0
TABLE
  2
UCS
  5
7
330
0
100
AcDbSymbolTable
 70
     0
  0
ENDTAB
  0
TABLE
  2
APPID
  5
9
330
0
100
AcDbSymbolTable
 70
     1
  0
APPID
  5
12
330
9
100
AcDbSymbolTableRecord
100
AcDbRegAppTableRecord
  2
ACAD
 70
     0
  0
ENDTAB
  0
TABLE
  2
DIMSTYLE
  5
A
330
0
100
AcDbSymbolTable
 70
     1
100
AcDbDimStyleTable
  0
DIMSTYLE
105
27
330
A
100
AcDbSymbolTableRecord
100
AcDbDimStyleTableRecord
  2
ISO-25
 70
     0
 41
2.5
 42
0.625
 43
3.75
 44
1.25
 73
     0
 74
     0
 77
     1
 78
     8
140
2.5
141
2.5
143
0.0393700787
147
0.625
171
     3
172
     1
178
     0
271
     2
272
     2
274
     3
278
    44
283
     0
284
     8
340
11
  0
ENDTAB
  0
TABLE
  2
BLOCK_RECORD
  5
1
330
0
100
AcDbSymbolTable
 70
     1
  0
BLOCK_RECORD
  5
1F
330
1
100
AcDbSymbolTableRecord
100
AcDbBlockTableRecord
  2
*Model_Space
340
22
  0
BLOCK_RECORD
  5
1B
330
1
100
AcDbSymbolTableRecord
100
AcDbBlockTableRecord
  2
*Paper_Space
340
1E
  0
BLOCK_RECORD
  5
23
330
1
100
AcDbSymbolTableRecord
100
AcDbBlockTableRecord
  2
*Paper_Space0
340
26
  0
ENDTAB
  0
ENDSEC
  0
SECTION
  2
BLOCKS
  0
BLOCK
  5
20
330
1F
100
AcDbEntity
  8
0
100
AcDbBlockBegin
  2
*Model_Space
 70
     0
 10
0.0
 20
0.0
 30
0.0
  3
*Model_Space
  1

  0
ENDBLK
  5
21
330
1F
100
AcDbEntity
  8
0
100
AcDbBlockEnd
  0
BLOCK
  5
1C
330
1B
100
AcDbEntity
 67
     1
  8
0
100
AcDbBlockBegin
  2
*Paper_Space
 70
     0
 10
0.0
 20
0.0
 30
0.0
  3
*Paper_Space
  1

  0
ENDBLK
  5
1D
330
1B
100
AcDbEntity
 67
     1
  8
0
100
AcDbBlockEnd
  0
BLOCK
  5
24
330
23
100
AcDbEntity
  8
0
100
AcDbBlockBegin
  2
*Paper_Space0
 70
     0
 10
0.0
 20
0.0
 30
0.0
  3
*Paper_Space0
  1

  0
ENDBLK
  5
25
330
23
100
AcDbEntity
  8
0
100
AcDbBlockEnd
  0
ENDSEC
  0
SECTION
  2
ENTITIES
  0
CIRCLE
  5
73
330
1F
100
AcDbEntity
  8
0
  6
Continuous
 62
     7
370
    25
100
AcDbCircle
 10
55.7790901895
 20
90.6509633976
 30
0.0
 40
2.950000000000003
  0
ARC
  5
128
330
1F
100
AcDbEntity
  8
0
  6
Continuous
 62
     7
370
    25
100
AcDbCircle
 10
55.7790901899
 20
90.6509633978
 30
0.0
 40
21.24900000005143
100
AcDbArc
 50
168.8065048584
 51
171.1934951416
  0
ARC
  5
129
330
1F
100
AcDbEntity
  8
0
  6
Continuous
 62
     7
370
    25
100
AcDbCircle
 10
38.6105694021
 20
102.9908132251
 30
0.0
 40
8.99999999999944
100
AcDbArc
 50
230.6445669499
 51
245.8910058404
  0
ARC
  5
12A
330
1F
100
AcDbEntity
  8
0
  6
Continuous
 62
     7
370
    25
100
AcDbCircle
 10
55.7790901899
 20
90.6509633978
 30
0.0
 40
23.50000000007761
100
AcDbArc
 50
165.2364672397
 51
166.7635327603
  0
ARC
  5
12B
330
1F
100
AcDbEntity
  8
0
  6
Continuous
 62
     7
370
    25
100
AcDbCircle
 10
34.8269775045
 20
87.8156549816
 30
0.0
 40
8.999999999999497
100
AcDbArc
 50
86.1089941603
 51
101.3554330506
  0
ARC
  5
12C
330
1F
100
AcDbEntity
  8
0
  6
Continuous
 62
     7
370
    25
100
AcDbCircle
 10
55.7790901898
 20
90.6509633978
 30
0.0
 40
21.24900000006089
100
AcDbArc
 50
160.8065048584
 51
163.1934951416
  0
ARC
  5
12D
330
1F
100
AcDbEntity
  8
0
  6
Continuous
 62
     7
370
    25
100
AcDbCircle
 10
40.495027432
 20
105.2601189318
 30
0.0
 40
9.0000000000002
100
AcDbArc
 50
222.6445669498
 51
237.8910058403
  0
ARC
  5
12E
330
1F
100
AcDbEntity
  8
0
  6
Continuous
 62
     7
370
    25
100
AcDbCircle
 10
55.7790901899
 20
90.6509633978
 30
0.0
 40
23.50000000011813
100
AcDbArc
 50
157.2364672397
 51
158.7635327603
  0
ARC
  5
12F
330
1F
100
AcDbEntity
  8
0
  6
Continuous
 62
     7
370
    25
100
AcDbCircle
 10
34.6362833603
 20
90.7592185023
 30
0.0
 40
8.99999999999973
100
AcDbArc
 50
78.1089941598
 51
93.3554330502
  0
ARC
  5
130
330
1F
100
AcDbEntity
  8
0
  6
Continuous
 62
     7
370
    25
100
AcDbCircle
 10
55.7790901898
 20
90.6509633978
 30
0.0
 40
21.24900000008983
100
AcDbArc
 50
152.8065048583
 51
155.1934951416
  0
ARC
  5
131
330
1F
100
AcDbEntity
  8
0
  6
Continuous
 62
     7
370
    25
100
AcDbCircle
 10
42.6769723581
 20
107.2450740437
 30
0.0
 40
8.99999999999946
100
AcDbArc
 50
214.6445669504
 51
229.8910058407
  0
ARC
  5
132
330
1F
100
AcDbEntity
  8
0
  6
Continuous
 62
     7
370
    25
100
AcDbCircle
 10
55.7790901897
 20
90.6509633979
 30
0.0
 40
23.49999999994825
100
AcDbArc
 50
149.2364672397
 51
150.7635327603
  0
ARC
  5
133
330
1F
100
AcDbEntity
  8
0
  6
Continuous
 62
     7
370
    25
100
AcDbCircle
 10
34.8571099016
 20
93.7006749605
 30
0.0
 40
9.000000000000275
100
AcDbArc
 50
70.1089941601
 51
85.3554330505
  0
ARC
  5
134
330
1F
100
AcDbEntity
  8
0
  6
Continuous
 62
     7
370
    25
100
AcDbCircle
 10
55.7790901898
 20
90.6509633978
 30
0.0
 40
21.24900000009104
100
AcDbArc
 50
144.8065048583
 51
147.1934951416
  0
ARC
  5
135
330
1F
100
AcDbEntity
  8
0
  6
Continuous
 62
     7
370
    25
100
AcDbCircle
 10
45.1139351044
 20
108.9070436675
 30
0.0
 40
9.000000000000853
100
AcDbArc
 50
206.6445669507
 51
221.8910058412
  0
ARC
  5
136
330
1F
100
AcDbEntity
  8
0
  6
Continuous
 62
     7
370
    25
100
AcDbCircle
 10
55.7790901898
 20
90.6509633979
 30
0.0
 40
23.50000000002544
100
AcDbArc
 50
141.2364672397
 51
142.7635327603
  0
ARC
  5
137
330
1F
100
AcDbEntity
  8
0
  6
Continuous
 62
     7
370
    25
100
AcDbCircle
 10
35.4851589907
 20
96.5827722522
 30
0.0
 40
9.000000000000274
100
AcDbArc
 50
62.10899416
 51
77.3554330505
  0
ARC
  5
138
330
1F
100
AcDbEntity
  8
0
  6
Continuous
 62
     7
370
    25
100
AcDbCircle
 10
55.7790901898
 20
90.6509633979
 30
0.0
 40
21.24900000009308
100
AcDbArc
 50
136.8065048583
 51
139.1934951416
  0
ARC
  5
139
330
1F
100
AcDbEntity
  8
0
  6
Continuous
 62
     7
370
    25
100
AcDbCircle
 10
47.7584829631
 20
110.2136794546
 30
0.0
 40
9.000000000000433
100
AcDbArc
 50
198.6445669504
 51
213.8910058408
  0
ARC
  5
13A
330
1F
100
AcDbEntity
  8
0
  6
Continuous
 62
     7
370
    25
100
AcDbCircle
 10
55.7790901899
 20
90.6509633978
 30
0.0
 40
23.50000000013174
100
AcDbArc
 50
133.2364672397
 51
134.7635327603
  0
ARC
  5
13B
330
1F
100
AcDbEntity
  8
0
  6
Continuous
 62
     7
370
    25
100
AcDbCircle
 10
36.5082063667
 20
99.3494136318
 30
0.0
 40
8.999999999999888
100
AcDbArc
 50
54.1089941606
 51
69.3554330509
  0
ARC
  5
13C
330
1F
100
AcDbEntity
  8
0
  6
Continuous
 62
     7
370
    25
100
AcDbCircle
 10
55.7790901898
 20
90.6509633978
 30
0.0
 40
21.24900000013206
100
AcDbArc
 50
128.8065048583
 51
131.1934951416
  0
ARC
  5
13D
330
1F
100
AcDbEntity
  8
0
  6
Continuous
 62
     7
370
    25
100
AcDbCircle
 10
50.559142818
 20
111.1395492262
 30
0.0
 40
9.000000000000137
100
AcDbArc
 50
190.6445669507
 51
205.8910058413
  0
ARC
  5
13E
330
1F
100
AcDbEntity
  8
0
  6
Continuous
 62
     7
370
    25
100
AcDbCircle
 10
55.7790901898
 20
90.6509633978
 30
0.0
 40
23.50000000015946
100
AcDbArc
 50
125.2364672397
 51
126.7635327603
  0
ARC
  5
13F
330
1F
100
AcDbEntity
  8
0
  6
Continuous
 62
     7
370
    25
100
AcDbCircle
 10
37.9063395759
 20
101.9467495721
 30
0.0
 40
8.999999999999721
100
AcDbArc
 50
46.1089941598
 51
61.3554330504
  0
ARC
  5
140
330
1F
100
AcDbEntity
  8
0
  6
Continuous
 62
     7
370
    25
100
AcDbCircle
 10
55.7790901898
 20
90.6509633979
 30
0.0
 40
21.24900000011155
100
AcDbArc
 50
120.8065048583
 51
123.1934951416
  0
ARC
  5
141
330
1F
100
AcDbEntity
  8
0
  6
Continuous
 62
     7
370
    25
100
AcDbCircle
 10
53.4614030111
 20
111.6666319799
 30
0.0
 40
9.000000000000643
100
AcDbArc
 50
182.6445669505
 51
197.891005841
  0
ARC
  5
142
330
1F
100
AcDbEntity
  8
0
  6
Continuous
 62
     7
370
    25
100
AcDbCircle
 10
55.7790901898
 20
90.6509633978
 30
0.0
 40
23.50000000016531
100
AcDbArc
 50
117.2364672397
 51
118.7635327603
  0
ARC
  5
143
330
1F
100
AcDbEntity
  8
0
  6
Continuous
 62
     7
370
    25
100
AcDbCircle
 10
39.6523455459
 20
104.3242258831
 30
0.0
 40
8.99999999999889
100
AcDbArc
 50
38.1089941599
 51
53.3554330505
  0
ARC
  5
144
330
1F
100
AcDbEntity
  8
0
  6
Continuous
 62
     7
370
    25
100
AcDbCircle
 10
55.7790901898
 20
90.6509633978
 30
0.0
 40
21.2490000001599
100
AcDbArc
 50
112.8065048583
 51
115.1934951416
  0
ARC
  5
145
330
1F
100
AcDbEntity
  8
0
  6
Continuous
 62
     7
370
    25
100
AcDbCircle
 10
56.4087743487
 20
111.7846686493
 30
0.0
 40
9.000000000000567
100
AcDbArc
 50
174.6445669496
 51
189.8910058393
  0
ARC
  5
146
330
1F
100
AcDbEntity
  8
0
  6
Continuous
 62
     7
370
    25
100
AcDbCircle
 10
55.7790901898
 20
90.650963398
 30
0.0
 40
23.49999999980604
100
AcDbArc
 50
109.2364672397
 51
110.7635327603
  0
ARC
  5
147
330
1F
100
AcDbEntity
  8
0
  6
Continuous
 62
     7
370
    25
100
AcDbCircle
 10
41.7122402566
 20
106.4355676929
 30
0.0
 40
8.999999999999288
100
AcDbArc
 50
30.1089941596
 51
45.3554330502
  0
ARC
  5
148
330
1F
100
AcDbEntity
  8
0
  6
Continuous
 62
     7
370
    25
100
AcDbCircle
 10
55.7790901898
 20
90.6509633979
 30
0.0
 40
21.24899999994038
100
AcDbArc
 50
104.8065048583
 51
107.1934951416
  0
ARC
  5
149
330
1F
100
AcDbEntity
  8
0
  6
Continuous
 62
     7
370
    25
100
AcDbCircle
 10
59.3438896004
 20
111.4913617858
 30
0.0
 40
9.000000000000334
100
AcDbArc
 50
166.6445669509
 51
181.8910058415
  0
ARC
  5
14A
330
1F
100
AcDbEntity
  8
0
  6
Continuous
 62
     7
370
    25
100
AcDbCircle
 10
55.7790901898
 20
90.6509633978
 30
0.0
 40
23.50000000005006
100
AcDbArc
 50
101.2364672397
 51
102.7635327603
  0
ARC
  5
14B
330
1F
100
AcDbEntity
  8
0
  6
Continuous
 62
     7
370
    25
100
AcDbCircle
 10
44.0459302003
 20
108.239680135
 30
0.0
 40
9.000000000000858
100
AcDbArc
 50
22.1089941595
 51
37.35543305
  0
ARC
  5
14C
330
1F
100
AcDbEntity
  8
0
  6
Continuous
 62
     7
370
    25
100
AcDbCircle
 10
55.7790901898
 20
90.6509633978
 30
0.0
 40
21.24900000000826
100
AcDbArc
 50
96.8065048584
 51
99.1934951416
  0
ARC
  5
14D
330
1F
100
AcDbEntity
  8
0
  6
Continuous
 62
     7
370
    25
100
AcDbCircle
 10
62.2096200864
 20
110.7924202728
 30
0.0
 40
9.00000000000014
100
AcDbArc
 50
158.6445669498
 51
173.8910058401
  0
ARC
  5
14E
330
1F
100
AcDbEntity
  8
0
  6
Continuous
 62
     7
370
    25
100
AcDbCircle
 10
55.7790901898
 20
90.6509633978
 30
0.0
 40
23.50000000002435
100
AcDbArc
 50
93.2364672397
 51
94.7635327603
  0
ARC
  5
14F
330
1F
100
AcDbEntity
  8
0
  6
Continuous
 62
     7
370
    25
100
AcDbCircle
 10
46.607992757
 20
109.7014482125
 30
0.0
 40
9.00000000000088
100
AcDbArc
 50
14.1089941602
 51
29.3554330506
  0
ARC
  5
150
330
1F
100
AcDbEntity
  8
0
  6
Continuous
 62
     7
370
    25
100
AcDbCircle
 10
55.7790901898
 20
90.6509633978
 30
0.0
 40
21.24900000000293
100
AcDbArc
 50
88.8065048583
 51
91.1934951416
  0
ARC
  5
151
330
1F
100
AcDbEntity
  8
0
  6
Continuous
 62
     7
370
    25
100
AcDbCircle
 10
64.9501876227
 20
109.7014482127
 30
0.0
 40
8.99999999999987
100
AcDbArc
 50
150.6445669507
 51
165.8910058413
  0
ARC
  5
152
330
1F
100
AcDbEntity
  8
0
  6
Continuous
 62
     7
370
    25
100
AcDbCircle
 10
55.7790901898
 20
90.6509633978
 30
0.0
 40
23.5000000000577
100
AcDbArc
 50
85.2364672396
 51
86.7635327603
  0
ARC
  5
153
330
1F
100
AcDbEntity
  8
0
  6
Continuous
 62
     7
370
    25
100
AcDbCircle
 10
49.3485602932
 20
110.7924202729
 30
0.0
 40
9.000000000000256
100
AcDbArc
 50
6.1089941593
 51
21.3554330498
  0
ARC
  5
154
330
1F
100
AcDbEntity
  8
0
  6
Continuous
 62
     7
370
    25
100
AcDbCircle
 10
55.7790901898
 20
90.6509633978
 30
0.0
 40
21.24900000004021
100
AcDbArc
 50
80.8065048583
 51
83.1934951416
  0
ARC
  5
155
330
1F
100
AcDbEntity
  8
0
  6
Continuous
 62
     7
370
    25
100
AcDbCircle
 10
67.5122501794
 20
108.239680135
 30
0.0
 40
9.000000000000233
100
AcDbArc
 50
142.6445669501
 51
157.8910058405
  0
ARC
  5
156
330
1F
100
AcDbEntity
  8
0
  6
Continuous
 62
     7
370
    25
100
AcDbCircle
 10
55.7790901898
 20
90.6509633979
 30
0.0
 40
23.4999999999974
100
AcDbArc
 50
77.2364672397
 51
78.7635327603
  0
ARC
  5
157
330
1F
100
AcDbEntity
  8
0
  6
Continuous
 62
     7
370
    25
100
AcDbCircle
 10
52.2142907793
 20
111.4913617855
 30
0.0
 40
8.999999999999995
100
AcDbArc
 50
358.1089941604
 51
13.3554330508
  0
ARC
  5
158
330
1F
100
AcDbEntity
  8
0
  6
Continuous
 62
     7
370
    25
100
AcDbCircle
 10
55.7790901898
 20
90.6509633979
 30
0.0
 40
21.24900000000023
100
AcDbArc
 50
72.8065048583
 51
75.1934951416
  0
ARC
  5
159
330
1F
100
AcDbEntity
  8
0
  6
Continuous
 62
     7
370
    25
100
AcDbCircle
 10
69.8459401232
 20
106.4355676931
 30
0.0
 40
9.000000000000215
100
AcDbArc
 50
134.6445669504
 51
149.8910058411
  0
ARC
  5
15A
330
1F
100
AcDbEntity
  8
0
  6
Continuous
 62
     7
370
    25
100
AcDbCircle
 10
55.7790901898
 20
90.6509633979
 30
0.0
 40
23.50000000002041
100
AcDbArc
 50
69.2364672397
 51
70.7635327603
  0
ARC
  5
15B
330
1F
100
AcDbEntity
  8
0
  6
Continuous
 62
     7
370
    25
100
AcDbCircle
 10
55.149406031
 20
111.7846686494
 30
0.0
 40
8.99999999999892
100
AcDbArc
 50
350.1089941595
 51
5.3554330502
  0
ARC
  5
15C
330
1F
100
AcDbEntity
  8
0
  6
Continuous
 62
     7
370
    25
100
AcDbCircle
 10
55.7790901898
 20
90.6509633978
 30
0.0
 40
21.24900000003624
100
AcDbArc
 50
64.8065048583
 51
67.1934951416
  0
ARC
  5
15D
330
1F
100
AcDbEntity
  8
0
  6
Continuous
 62
     7
370
    25
100
AcDbCircle
 10
71.9058348338
 20
104.3242258831
 30
0.0
 40
8.99999999999948
100
AcDbArc
 50
126.6445669504
 51
141.8910058407
  0
ARC
  5
15E
330
1F
100
AcDbEntity
  8
0
  6
Continuous
 62
     7
370
    25
100
AcDbCircle
 10
55.7790901898
 20
90.6509633978
 30
0.0
 40
23.50000000009038
100
AcDbArc
 50
61.2364672397
 51
62.7635327603
  0
ARC
  5
15F
330
1F
100
AcDbEntity
  8
0
  6
Continuous
 62
     7
370
    25
100
AcDbCircle
 10
58.0967773685
 20
111.6666319796
 30
0.0
 40
8.99999999999977
100
AcDbArc
 50
342.1089941602
 51
357.3554330506
  0
ARC
  5
160
330
1F
100
AcDbEntity
  8
0
  6
Continuous
 62
     7
370
    25
100
AcDbCircle
 10
55.7790901898
 20
90.6509633979
 30
0.0
 40
21.24900000001193
100
AcDbArc
 50
56.8065048583
 51
59.1934951416
  0
ARC
  5
161
330
1F
100
AcDbEntity
  8
0
  6
Continuous
 62
     7
370
    25
100
AcDbCircle
 10
73.6518408038
 20
101.946749572
 30
0.0
 40
8.999999999999927
100
AcDbArc
 50
118.6445669502
 51
133.8910058405
  0
ARC
  5
162
330
1F
100
AcDbEntity
  8
0
  6
Continuous
 62
     7
370
    25
100
AcDbCircle
 10
55.7790901898
 20
90.6509633977
 30
0.0
 40
23.50000000012847
100
AcDbArc
 50
53.2364672397
 51
54.7635327603
  0
ARC
  5
163
330
1F
100
AcDbEntity
  8
0
  6
Continuous
 62
     7
370
    25
100
AcDbCircle
 10
60.9990375615
 20
111.1395492258
 30
0.0
 40
9.000000000000139
100
AcDbArc
 50
334.1089941603
 51
349.3554330508
  0
ARC
  5
164
330
1F
100
AcDbEntity
  8
0
  6
Continuous
 62
     7
370
    25
100
AcDbCircle
 10
55.7790901899
 20
90.6509633979
 30
0.0
 40
21.24899999997286
100
AcDbArc
 50
48.8065048583
 51
51.1934951416
  0
ARC
  5
165
330
1F
100
AcDbEntity
  8
0
  6
Continuous
 62
     7
370
    25
100
AcDbCircle
 10
75.0499740131
 20
99.3494136319
 30
0.0
 40
9.000000000000432
100
AcDbArc
 50
110.6445669506
 51
125.8910058411
  0
ARC
  5
166
330
1F
100
AcDbEntity
  8
0
  6
Continuous
 62
     7
370
    25
100
AcDbCircle
 10
55.7790901898
 20
90.6509633979
 30
0.0
 40
23.50000000001067
100
AcDbArc
 50
45.2364672397
 51
46.7635327603
  0
ARC
  5
167
330
1F
100
AcDbEntity
  8
0
  6
Continuous
 62
     7
370
    25
100
AcDbCircle
 10
63.7996974165
 20
110.2136794544
 30
0.0
 40
8.999999999999783
100
AcDbArc
 50
326.1089941602
 51
341.3554330507
  0
ARC
  5
168
330
1F
100
AcDbEntity
  8
0
  6
Continuous
 62
     7
370
    25
100
AcDbCircle
 10
55.7790901898
 20
90.6509633979
 30
0.0
 40
21.24900000001286
100
AcDbArc
 50
40.8065048583
 51
43.1934951416
  0
ARC
  5
169
330
1F
100
AcDbEntity
  8
0
  6
Continuous
 62
     7
370
    25
100
AcDbCircle
 10
76.073021389
 20
96.5827722522
 30
0.0
 40
8.999999999999305
100
AcDbArc
 50
102.6445669501
 51
117.8910058405
  0
ARC
  5
16A
330
1F
100
AcDbEntity
  8
0
  6
Continuous
 62
     7
370
    25
100
AcDbCircle
 10
55.7790901898
 20
90.6509633978
 30
0.0
 40
23.5000000000375
100
AcDbArc
 50
37.2364672398
 51
38.7635327603
  0
ARC
  5
16B
330
1F
100
AcDbEntity
  8
0
  6
Continuous
 62
     7
370
    25
100
AcDbCircle
 10
66.444245275
 20
108.9070436672
 30
0.0
 40
8.999999999999414
100
AcDbArc
 50
318.1089941606
 51
333.3554330511
  0
ARC
  5
16C
330
1F
100
AcDbEntity
  8
0
  6
Continuous
 62
     7
370
    25
100
AcDbCircle
 10
55.7790901898
 20
90.6509633978
 30
0.0
 40
21.2490000000212
100
AcDbArc
 50
32.8065048584
 51
35.1934951416
  0
ARC
  5
16D
330
1F
100
AcDbEntity
  8
0
  6
Continuous
 62
     7
370
    25
100
AcDbCircle
 10
76.7010704781
 20
93.7006749605
 30
0.0
 40
9.000000000000417
100
AcDbArc
 50
94.64456695
 51
109.8910058406
  0
ARC
  5
16E
330
1F
100
AcDbEntity
  8
0
  6
Continuous
 62
     7
370
    25
100
AcDbCircle
 10
55.7790901898
 20
90.6509633978
 30
0.0
 40
23.50000000005999
100
AcDbArc
 50
29.2364672398
 51
30.7635327603
  0
ARC
  5
16F
330
1F
100
AcDbEntity
  8
0
  6
Continuous
 62
     7
370
    25
100
AcDbCircle
 10
68.8812080214
 20
107.2450740436
 30
0.0
 40
9.000000000000407
100
AcDbArc
 50
310.1089941603
 51
325.355433051
  0
ARC
  5
170
330
1F
100
AcDbEntity
  8
0
  6
Continuous
 62
     7
370
    25
100
AcDbCircle
 10
55.7790901899
 20
90.6509633979
 30
0.0
 40
21.24899999997424
100
AcDbArc
 50
24.8065048584
 51
27.1934951416
  0
ARC
  5
171
330
1F
100
AcDbEntity
  8
0
  6
Continuous
 62
     7
370
    25
100
AcDbCircle
 10
76.9218970193
 20
90.7592185023
 30
0.0
 40
8.999999999999023
100
AcDbArc
 50
86.6445669495
 51
101.89100584
  0
ARC
  5
172
330
1F
100
AcDbEntity
  8
0
  6
Continuous
 62
     7
370
    25
100
AcDbCircle
 10
55.7790901899
 20
90.6509633979
 30
0.0
 40
23.49999999999629
100
AcDbArc
 50
21.2364672397
 51
22.7635327603
  0
ARC
  5
173
330
1F
100
AcDbEntity
  8
0
  6
Continuous
 62
     7
370
    25
100
AcDbCircle
 10
71.0631529476
 20
105.2601189317
 30
0.0
 40
8.99999999999992
100
AcDbArc
 50
302.1089941599
 51
317.3554330504
  0
ARC
  5
174
330
1F
100
AcDbEntity
  8
0
  6
Continuous
 62
     7
370
    25
100
AcDbCircle
 10
55.7790901898
 20
90.6509633978
 30
0.0
 40
21.24900000005338
100
AcDbArc
 50
16.8065048584
 51
19.1934951416
  0
ARC
  5
175
330
1F
100
AcDbEntity
  8
0
  6
Continuous
 62
     7
370
    25
100
AcDbCircle
 10
76.7312028752
 20
87.8156549816
 30
0.0
 40
8.99999999999956
100
AcDbArc
 50
78.6445669497
 51
93.8910058402
  0
ARC
  5
176
330
1F
100
AcDbEntity
  8
0
  6
Continuous
 62
     7
370
    25
100
AcDbCircle
 10
55.7790901899
 20
90.6509633979
 30
0.0
 40
23.49999999993921
100
AcDbArc
 50
13.2364672397
 51
14.7635327603
  0
ARC
  5
177
330
1F
100
AcDbEntity
  8
0
  6
Continuous
 62
     7
370
    25
100
AcDbCircle
 10
72.9476109775
 20
102.990813225
 30
0.0
 40
9.000000000000137
100
AcDbArc
 50
294.1089941601
 51
309.3554330507
  0
ARC
  5
178
330
1F
100
AcDbEntity
  8
0
  6
Continuous
 62
     7
370
    25
100
AcDbCircle
 10
55.7790901899
 20
90.6509633979
 30
0.0
 40
21.24899999997796
100
AcDbArc
 50
8.8065048583
 51
11.1934951416
  0
ARC
  5
179
330
1F
100
AcDbEntity
  8
0
  6
Continuous
 62
     7
370
    25
100
AcDbCircle
 10
76.1326996905
 20
84.9272775141
 30
0.0
 40
8.99999999999965
100
AcDbArc
 50
70.6445669501
 51
85.8910058406
  0
ARC
  5
17A
330
1F
100
AcDbEntity
  8
0
  6
Continuous
 62
     7
370
    25
100
AcDbCircle
 10
55.7790901899
 20
90.6509633979
 30
0.0
 40
23.49999999992501
100
AcDbArc
 50
5.2364672398
 51
6.7635327603
  0
ARC
  5
17B
330
1F
100
AcDbEntity
  8
0
  6
Continuous
 62
     7
370
    25
100
AcDbCircle
 10
74.4979032791
 20
100.4813263778
 30
0.0
 40
9.00000000000008
100
AcDbArc
 50
286.108994161
 51
301.3554330515
  0
ARC
  5
17C
330
1F
100
AcDbEntity
  8
0
  6
Continuous
 62
     7
370
    25
100
AcDbCircle
 10
55.7790901898
 20
90.6509633978
 30
0.0
 40
21.24900000005824
100
AcDbArc
 50
0.8065048583
 51
3.1934951416
  0
ARC
  5
17D
330
1F
100
AcDbEntity
  8
0
  6
Continuous
 62
     7
370
    25
100
AcDbCircle
 10
75.1380366485
 20
82.1503050817
 30
0.0
 40
8.999999999999314
100
AcDbArc
 50
62.64456695
 51
77.8910058403
  0
ARC
  5
17E
330
1F
100
AcDbEntity
  8
0
  6
Continuous
 62
     7
370
    25
100
AcDbCircle
 10
55.77909019
 20
90.6509633978
 30
0.0
 40
23.49999999988422
100
AcDbArc
 50
357.2364672397
 51
358.7635327603
  0
ARC
  5
17F
330
1F
100
AcDbEntity
  8
0
  6
Continuous
 62
     7
370
    25
100
AcDbCircle
 10
75.6838551765
 20
97.7805026972
 30
0.0
 40
9.000000000000567
100
AcDbArc
 50
278.1089941601
 51
293.3554330505
  0
ARC
  5
180
330
1F
100
AcDbEntity
  8
0
  6
Continuous
 62
     7
370
    25
100
AcDbCircle
 10
55.7790901898
 20
90.6509633978
 30
0.0
 40
21.24899999999916
100
AcDbArc
 50
352.8065048584
 51
355.1934951416
  0
ARC
  5
181
330
1F
100
AcDbEntity
  8
0
  6
Continuous
 62
     7
370
    25
100
AcDbCircle
 10
73.7665737342
 20
79.5387882942
 30
0.0
 40
9.000000000000917
100
AcDbArc
 50
54.6445669493
 51
69.8910058398
  0
ARC
  5
182
330
1F
100
AcDbEntity
  8
0
  6
Continuous
 62
     7
370
    25
100
AcDbCircle
 10
55.7790901898
 20
90.6509633979
 30
0.0
 40
23.50000000007954
100
AcDbArc
 50
349.2364672398
 51
350.7635327603
  0
ARC
  5
183
330
1F
100
AcDbEntity
  8
0
  6
Continuous
 62
     7
370
    25
100
AcDbCircle
 10
76.4823834645
 20
94.9409106437
 30
0.0
 40
8.999999999999813
100
AcDbArc
 50
270.1089941609
 51
285.3554330515
  0
ARC
  5
184
330
1F
100
AcDbEntity
  8
0
  6
Continuous
 62
     7
370
    25
100
AcDbCircle
 10
55.7790901898
 20
90.6509633979
 30
0.0
 40
21.24900000001172
100
AcDbArc
 50
344.8065048584
 51
347.1934951416
  0
ARC
  5
185
330
1F
100
AcDbEntity
  8
0
  6
Continuous
 62
     7
370
    25
100
AcDbCircle
 10
72.0450049133
 20
77.1435573551
 30
0.0
 40
8.999999999999613
100
AcDbArc
 50
46.6445669493
 51
61.8910058398
  0
ARC
  5
186
330
1F
100
AcDbEntity
  8
0
  6
Continuous
 62
     7
370
    25
100
AcDbCircle
 10
55.7790901897
 20
90.6509633979
 30
0.0
 40
23.50000000011955
100
AcDbArc
 50
341.2364672398
 51
342.7635327603
  0
ARC
  5
187
330
1F
100
AcDbEntity
  8
0
  6
Continuous
 62
     7
370
    25
100
AcDbCircle
 10
76.8779456987
 20
92.0178196469
 30
0.0
 40
9.000000000000215
100
AcDbArc
 50
262.1089941607
 51
277.3554330513
  0
ARC
  5
188
330
1F
100
AcDbEntity
  8
0
  6
Continuous
 62
     7
370
    25
100
AcDbCircle
 10
55.7790901898
 20
90.6509633978
 30
0.0
 40
21.24900000000473
100
AcDbArc
 50
336.8065048584
 51
339.1934951416
  0
ARC
  5
189
330
1F
100
AcDbEntity
  8
0
  6
Continuous
 62
     7
370
    25
100
AcDbCircle
 10
70.0068385645
 20
75.0112327101
 30
0.0
 40
9.000000000001313
100
AcDbArc
 50
38.6445669499
 51
53.8910058403
  0
ARC
  5
18A
330
1F
100
AcDbEntity
  8
0
  6
Continuous
 62
     7
370
    25
100
AcDbCircle
 10
55.7790901898
 20
90.6509633978
 30
0.0
 40
23.50000000000413
100
AcDbArc
 50
333.2364672398
 51
334.7635327603
  0
ARC
  5
18B
330
1F
100
AcDbEntity
  8
0
  6
Continuous
 62
     7
370
    25
100
AcDbCircle
 10
76.86284271
 20
89.068124348
 30
0.0
 40
8.999999999999218
100
AcDbArc
 50
254.1089941608
 51
269.3554330513
  0
ARC
  5
18C
330
1F
100
AcDbEntity
  8
0
  6
Continuous
 62
     7
370
    25
100
AcDbCircle
 10
55.7790901899
 20
90.6509633978
 30
0.0
 40
21.24899999995932
100
AcDbArc
 50
328.8065048585
 51
331.1934951416
  0
ARC
  5
18D
330
1F
100
AcDbEntity
  8
0
  6
Continuous
 62
     7
370
    25
100
AcDbCircle
 10
67.6917452773
 20
73.1833176332
 30
0.0
 40
9.000000000001624
100
AcDbArc
 50
30.644566949
 51
45.8910058395
  0
ARC
  5
18E
330
1F
100
AcDbEntity
  8
0
  6
Continuous
 62
     7
370
    25
100
AcDbCircle
 10
55.7790901898
 20
90.6509633979
 30
0.0
 40
23.50000000008013
100
AcDbArc
 50
325.2364672398
 51
326.7635327603
  0
ARC
  5
18F
330
1F
100
AcDbEntity
  8
0
  6
Continuous
 62
     7
370
    25
100
AcDbCircle
 10
76.437368461
 20
86.1492372107
 30
0.0
 40
8.999999999999877
100
AcDbArc
 50
246.1089941605
 51
261.3554330511
  0
ARC
  5
190
330
1F
100
AcDbEntity
  8
0
  6
Continuous
 62
     7
370
    25
100
AcDbCircle
 10
55.7790901898
 20
90.6509633978
 30
0.0
 40
21.24899999999163
100
AcDbArc
 50
320.8065048584
 51
323.1934951416
  0
ARC
  5
191
330
1F
100
AcDbEntity
  8
0
  6
Continuous
 62
     7
370
    25
100
AcDbCircle
 10
65.1447857094
 20
71.6953904118
 30
0.0
 40
9.000000000001267
100
AcDbArc
 50
22.6445669494
 51
37.89100584
  0
ARC
  5
192
330
1F
100
AcDbEntity
  8
0
  6
Continuous
 62
     7
370
    25
100
AcDbCircle
 10
55.7790901898
 20
90.6509633979
 30
0.0
 40
23.50000000001814
100
AcDbArc
 50
317.2364672398
 51
318.7635327603
  0
ARC
  5
193
330
1F
100
AcDbEntity
  8
0
  6
Continuous
 62
     7
370
    25
100
AcDbCircle
 10
75.6098043238
 20
83.317971053
 30
0.0
 40
9.000000000001194
100
AcDbArc
 50
238.1089941607
 51
253.3554330512
  0
ARC
  5
194
330
1F
100
AcDbEntity
  8
0
  6
Continuous
 62
     7
370
    25
100
AcDbCircle
 10
55.7790901898
 20
90.6509633979
 30
0.0
 40
21.24900000002506
100
AcDbArc
 50
312.8065048584
 51
315.1934951416
  0
ARC
  5
195
330
1F
100
AcDbEntity
  8
0
  6
Continuous
 62
     7
370
    25
100
AcDbCircle
 10
62.4155335314
 20
70.576411857
 30
0.0
 40
9.00000000000018
100
AcDbArc
 50
14.6445669491
 51
29.8910058396
  0
ARC
  5
196
330
1F
100
AcDbEntity
  8
0
  6
Continuous
 62
     7
370
    25
100
AcDbCircle
 10
55.7790901899
 20
90.6509633978
 30
0.0
 40
23.49999999988467
100
AcDbArc
 50
309.2364672398
 51
310.7635327603
  0
ARC
  5
197
330
1F
100
AcDbEntity
  8
0
  6
Continuous
 62
     7
370
    25
100
AcDbCircle
 10
74.396257893
 20
80.6294332502
 30
0.0
 40
9.000000000000918
100
AcDbArc
 50
230.108994161
 51
245.3554330516
  0
ARC
  5
198
330
1F
100
AcDbEntity
  8
0
  6
Continuous
 62
     7
370
    25
100
AcDbCircle
 10
55.7790901899
 20
90.6509633978
 30
0.0
 40
21.24899999996299
100
AcDbArc
 50
304.8065048584
 51
307.1934951416
  0
ARC
  5
199
330
1F
100
AcDbEntity
  8
0
  6
Continuous
 62
     7
370
    25
100
AcDbCircle
 10
59.5571105327
 20
69.8481616134
 30
0.0
 40
9.000000000000071
100
AcDbArc
 50
6.6445669494
 51
21.8910058399
  0
ARC
  5
19A
330
1F
100
AcDbEntity
  8
0
  6
Continuous
 62
     7
370
    25
100
AcDbCircle
 10
55.7790901898
 20
90.6509633979
 30
0.0
 40
23.50000000009313
100
AcDbArc
 50
301.2364672398
 51
302.7635327603
  0
ARC
  5
19B
330
1F
100
AcDbEntity
  8
0
  6
Continuous
 62
     7
370
    25
100
AcDbCircle
 10
72.8203494697
 20
78.1359531323
 30
0.0
 40
8.99999999999996
100
AcDbArc
 50
222.108994161
 51
237.3554330516
  0
ARC
  5
19C
330
1F
100
AcDbEntity
  8
0
  6
Continuous
 62
     7
370
    25
100
AcDbCircle
 10
55.7790901898
 20
90.6509633979
 30
0.0
 40
21.24900000009842
100
AcDbArc
 50
296.8065048585
 51
299.1934951416
  0
ARC
  5
19D
330
1F
100
AcDbEntity
  8
0
  6
Continuous
 62
     7
370
    25
100
AcDbCircle
 10
56.6251526654
 20
69.5248142438
 30
0.0
 40
8.999999999999606
100
AcDbArc
 50
358.6445669489
 51
13.8910058394
  0
ARC
  5
19E
330
1F
100
AcDbEntity
  8
0
  6
Continuous
 62
     7
370
    25
100
AcDbCircle
 10
55.7790901899
 20
90.6509633978
 30
0.0
 40
23.49999999993387
100
AcDbArc
 50
293.2364672398
 51
294.7635327603
  0
ARC
  5
19F
330
1F
100
AcDbEntity
  8
0
  6
Continuous
 62
     7
370
    25
100
AcDbCircle
 10
70.9127523186
 20
75.8860634536
 30
0.0
 40
9.0000000000008
100
AcDbArc
 50
214.1089941606
 51
229.3554330511
  0
ARC
  5
1A0
330
1F
100
AcDbEntity
  8
0
  6
Continuous
 62
     7
370
    25
100
AcDbCircle
 10
55.7790901898
 20
90.6509633979
 30
0.0
 40
21.2490000000231
100
AcDbArc
 50
288.8065048584
 51
291.1934951416
  0
ARC
  5
1A1
330
1F
100
AcDbEntity
  8
0
  6
Continuous
 62
     7
370
    25
100
AcDbCircle
 10
53.6767271544
 20
69.6126633367
 30
0.0
 40
9.000000000002066
100
AcDbArc
 50
350.6445669495
 51
5.8910058401
  0
ARC
  5
1A2
330
1F
100
AcDbEntity
  8
0
  6
Continuous
 62
     7
370
    25
100
AcDbCircle
 10
55.7790901898
 20
90.6509633979
 30
0.0
 40
23.50000000003197
100
AcDbArc
 50
285.2364672399
 51
286.7635327603
  0
ARC
  5
1A3
330
1F
100
AcDbEntity
  8
0
  6
Continuous
 62
     7
370
    25
100
AcDbCircle
 10
68.7105956485
 20
73.9235557577
 30
0.0
 40
8.999999999999472
100
AcDbArc
 50
206.1089941613
 51
221.3554330519
  0
ARC
  5
1A4
330
1F
100
AcDbEntity
  8
0
  6
Continuous
 62
     7
370
    25
100
AcDbCircle
 10
55.7790901898
 20
90.6509633978
 30
0.0
 40
21.24899999999866
100
AcDbArc
 50
280.8065048584
 51
283.1934951416
  0
ARC
  5
1A5
330
1F
100
AcDbEntity
  8
0
  6
Continuous
 62
     7
370
    25
100
AcDbCircle
 10
50.7692217485
 20
70.1099990097
 30
0.0
 40
8.99999999999985
100
AcDbArc
 50
342.6445669497
 51
357.8910058401
  0
ARC
  5
1A6
330
1F
100
AcDbEntity
  8
0
  6
Continuous
 62
     7
370
    25
100
AcDbCircle
 10
55.7790901898
 20
90.6509633978
 30
0.0
 40
23.49999999994149
100
AcDbArc
 50
277.2364672398
 51
278.7635327603
  0
ARC
  5
1A7
330
1F
100
AcDbEntity
  8
0
  6
Continuous
 62
     7
370
    25
100
AcDbCircle
 10
66.256741934
 20
72.2866280241
 30
0.0
 40
9.000000000000169
100
AcDbArc
 50
198.1089941606
 51
213.3554330511
  0
ARC
  5
1A8
330
1F
100
AcDbEntity
  8
0
  6
Continuous
 62
     7
370
    25
100
AcDbCircle
 10
55.7790901898
 20
90.6509633978
 30
0.0
 40
21.24899999996146
100
AcDbArc
 50
272.8065048584
 51
275.1934951416
  0
ARC
  5
1A9
330
1F
100
AcDbEntity
  8
0
  6
Continuous
 62
     7
370
    25
100
AcDbCircle
 10
47.9592277332
 20
71.0071411895
 30
0.0
 40
9.000000000000755
100
AcDbArc
 50
334.6445669492
 51
349.8910058398
  0
ARC
  5
1AA
330
1F
100
AcDbEntity
  8
0
  6
Continuous
 62
     7
370
    25
100
AcDbCircle
 10
55.7790901898
 20
90.650963398
 30
0.0
 40
23.50000000015113
100
AcDbArc
 50
269.2364672398
 51
270.7635327603
  0
ARC
  5
1AB
330
1F
100
AcDbEntity
  8
0
  6
Continuous
 62
     7
370
    25
100
AcDbCircle
 10
63.5989526464
 20
71.0071411896
 30
0.0
 40
9.0
100
AcDbArc
 50
190.1089941609
 51
205.3554330515
  0
ARC
  5
1AC
330
1F
100
AcDbEntity
  8
0
  6
Continuous
 62
     7
370
    25
100
AcDbCircle
 10
55.7790901898
 20
90.6509633978
 30
0.0
 40
21.24899999997216
100
AcDbArc
 50
264.8065048585
 51
267.1934951416
  0
ARC
  5
1AD
330
1F
100
AcDbEntity
  8
0
  6
Continuous
 62
     7
370
    25
100
AcDbCircle
 10
45.3014384457
 20
72.2866280241
 30
0.0
 40
9.000000000000568
100
AcDbArc
 50
326.6445669488
 51
341.8910058394
  0
ARC
  5
1AE
330
1F
100
AcDbEntity
  8
0
  6
Continuous
 62
     7
370
    25
100
AcDbCircle
 10
55.7790901898
 20
90.6509633978
 30
0.0
 40
23.49999999999371
100
AcDbArc
 50
261.2364672399
 51
262.7635327603
  0
ARC
  5
1AF
330
1F
100
AcDbEntity
  8
0
  6
Continuous
 62
     7
370
    25
100
AcDbCircle
 10
60.7889586311
 20
70.1099990099
 30
0.0
 40
8.999999999999213
100
AcDbArc
 50
182.1089941613
 51
197.355433052
  0
ARC
  5
1B0
330
1F
100
AcDbEntity
  8
0
  6
Continuous
 62
     7
370
    25
100
AcDbCircle
 10
55.7790901898
 20
90.6509633978
 30
0.0
 40
21.24899999994262
100
AcDbArc
 50
256.8065048584
 51
259.1934951416
  0
ARC
  5
1B1
330
1F
100
AcDbEntity
  8
0
  6
Continuous
 62
     7
370
    25
100
AcDbCircle
 10
42.8475847311
 20
73.9235557575
 30
0.0
 40
8.999999999999867
100
AcDbArc
 50
318.6445669497
 51
333.8910058404
  0
ARC
  5
1B2
330
1F
100
AcDbEntity
  8
0
  6
Continuous
 62
     7
370
    25
100
AcDbCircle
 10
55.7790901898
 20
90.6509633978
 30
0.0
 40
23.49999999994045
100
AcDbArc
 50
253.2364672398
 51
254.7635327603
  0
ARC
  5
1B3
330
1F
100
AcDbEntity
  8
0
  6
Continuous
 62
     7
370
    25
100
AcDbCircle
 10
57.8814532253
 20
69.6126633366
 30
0.0
 40
9.000000000000231
100
AcDbArc
 50
174.1089941568
 51
189.3554330497
  0
ARC
  5
1B4
330
1F
100
AcDbEntity
  8
0
  6
Continuous
 62
     7
370
    25
100
AcDbCircle
 10
55.7790901898
 20
90.6509633979
 30
0.0
 40
21.24899999966307
100
AcDbArc
 50
248.8065048584
 51
251.1934951416
  0
ARC
  5
1B5
330
1F
100
AcDbEntity
  8
0
  6
Continuous
 62
     7
370
    25
100
AcDbCircle
 10
40.6454280611
 20
75.8860634538
 30
0.0
 40
8.999999999998892
100
AcDbArc
 50
310.64456695
 51
325.8910058405
  0
ARC
  5
1B6
330
1F
100
AcDbEntity
  8
0
  6
Continuous
 62
     7
370
    25
100
AcDbCircle
 10
55.7790901898
 20
90.6509633978
 30
0.0
 40
23.49999999955507
100
AcDbArc
 50
245.2364672398
 51
246.7635327603
  0
ARC
  5
1B7
330
1F
100
AcDbEntity
  8
0
  6
Continuous
 62
     7
370
    25
100
AcDbCircle
 10
54.9330277144
 20
69.5248142441
 30
0.0
 40
8.99999999999946
100
AcDbArc
 50
166.1089941607
 51
181.3554330512
  0
ARC
  5
1B8
330
1F
100
AcDbEntity
  8
0
  6
Continuous
 62
     7
370
    25
100
AcDbCircle
 10
55.7790901898
 20
90.6509633979
 30
0.0
 40
21.24899999966941
100
AcDbArc
 50
240.8065048585
 51
243.1934951416
  0
ARC
  5
1B9
330
1F
100
AcDbEntity
  8
0
  6
Continuous
 62
     7
370
    25
100
AcDbCircle
 10
38.7378309101
 20
78.1359531325
 30
0.0
 40
8.999999999999355
100
AcDbArc
 50
302.6445669495
 51
317.8910058402
  0
ARC
  5
1BA
330
1F
100
AcDbEntity
  8
0
  6
Continuous
 62
     7
370
    25
100
AcDbCircle
 10
55.7790901899
 20
90.6509633979
 30
0.0
 40
23.49999999975508
100
AcDbArc
 50
237.2364672398
 51
238.7635327603
  0
ARC
  5
1BB
330
1F
100
AcDbEntity
  8
0
  6
Continuous
 62
     7
370
    25
100
AcDbCircle
 10
52.0010698472
 20
69.8481616138
 30
0.0
 40
9.000000000000687
100
AcDbArc
 50
158.1089941612
 51
173.3554330517
  0
ARC
  5
1BC
330
1F
100
AcDbEntity
  8
0
  6
Continuous
 62
     7
370
    25
100
AcDbCircle
 10
55.7790901898
 20
90.6509633978
 30
0.0
 40
21.24899999967471
100
AcDbArc
 50
232.8065048584
 51
235.1934951416
  0
ARC
  5
1BD
330
1F
100
AcDbEntity
  8
0
  6
Continuous
 62
     7
370
    25
100
AcDbCircle
 10
37.1619224867
 20
80.6294332503
 30
0.0
 40
9.0000000000005
100
AcDbArc
 50
294.6445669496
 51
309.8910058402
  0
ARC
  5
1BE
330
1F
100
AcDbEntity
  8
0
  6
Continuous
 62
     7
370
    25
100
AcDbCircle
 10
55.7790901898
 20
90.6509633977
 30
0.0
 40
23.4999999995679
100
AcDbArc
 50
229.2364672398
 51
230.7635327603
  0
ARC
  5
1BF
330
1F
100
AcDbEntity
  8
0
  6
Continuous
 62
     7
370
    25
100
AcDbCircle
 10
49.1426468485
 20
70.5764118572
 30
0.0
 40
8.999999999999435
100
AcDbArc
 50
150.1089941607
 51
165.3554330512
  0
ARC
  5
1C0
330
1F
100
AcDbEntity
  8
0
  6
Continuous
 62
     7
370
    25
100
AcDbCircle
 10
55.7790901898
 20
90.6509633979
 30
0.0
 40
21.24899999972691
100
AcDbArc
 50
224.8065048585
 51
227.1934951416
  0
ARC
  5
1C1
330
1F
100
AcDbEntity
  8
0
  6
Continuous
 62
     7
370
    25
100
AcDbCircle
 10
35.9483760561
 20
83.3179710531
 30
0.0
 40
9.000000000000092
100
AcDbArc
 50
286.6445669493
 51
301.89100584
  0
ARC
  5
1C2
330
1F
100
AcDbEntity
  8
0
  6
Continuous
 62
     7
370
    25
100
AcDbCircle
 10
55.7790901899
 20
90.6509633979
 30
0.0
 40
23.49999999975292
100
AcDbArc
 50
221.2364672398
 51
222.7635327603
  0
ARC
  5
1C3
330
1F
100
AcDbEntity
  8
0
  6
Continuous
 62
     7
370
    25
100
AcDbCircle
 10
46.4133946706
 20
71.695390412
 30
0.0
 40
8.999999999999375
100
AcDbArc
 50
142.1089941612
 51
157.3554330515
  0
ARC
  5
1C4
330
1F
100
AcDbEntity
  8
0
  6
Continuous
 62
     7
370
    25
100
AcDbCircle
 10
55.7790901898
 20
90.6509633978
 30
0.0
 40
21.24899999975646
100
AcDbArc
 50
216.8065048584
 51
219.1934951416
  0
ARC
  5
1C5
330
1F
100
AcDbEntity
  8
0
  6
Continuous
 62
     7
370
    25
100
AcDbCircle
 10
35.1208119188
 20
86.1492372107
 30
0.0
 40
9.000000000000654
100
AcDbArc
 50
278.6445669495
 51
293.8910058401
  0
ARC
  5
1C6
330
1F
100
AcDbEntity
  8
0
  6
Continuous
 62
     7
370
    25
100
AcDbCircle
 10
55.7790901899
 20
90.6509633979
 30
0.0
 40
23.49999999987807
100
AcDbArc
 50
213.2364672398
 51
214.7635327603
  0
ARC
  5
1C7
330
1F
100
AcDbEntity
  8
0
  6
Continuous
 62
     7
370
    25
100
AcDbCircle
 10
43.8664351026
 20
73.1833176333
 30
0.0
 40
9.0000000000004
100
AcDbArc
 50
134.1089941604
 51
149.3554330509
  0
ARC
  5
1C8
330
1F
100
AcDbEntity
  8
0
  6
Continuous
 62
     7
370
    25
100
AcDbCircle
 10
55.7790901898
 20
90.6509633978
 30
0.0
 40
21.2489999997739
100
AcDbArc
 50
208.8065048584
 51
211.1934951416
  0
ARC
  5
1C9
330
1F
100
AcDbEntity
  8
0
  6
Continuous
 62
     7
370
    25
100
AcDbCircle
 10
34.6953376697
 20
89.068124348
 30
0.0
 40
9.000000000000288
100
AcDbArc
 50
270.6445669497
 51
285.8910058404
  0
ARC
  5
1CA
330
1F
100
AcDbEntity
  8
0
  6
Continuous
 62
     7
370
    25
100
AcDbCircle
 10
55.7790901899
 20
90.6509633979
 30
0.0
 40
23.49999999985512
100
AcDbArc
 50
205.2364672398
 51
206.7635327603
  0
ARC
  5
1CB
330
1F
100
AcDbEntity
  8
0
  6
Continuous
 62
     7
370
    25
100
AcDbCircle
 10
41.5513418155
 20
75.0112327103
 30
0.0
 40
8.999999999999993
100
AcDbArc
 50
126.1089941612
 51
141.3554330516
  0
ARC
  5
1CC
330
1F
100
AcDbEntity
  8
0
  6
Continuous
 62
     7
370
    25
100
AcDbCircle
 10
55.7790901899
 20
90.6509633979
 30
0.0
 40
21.24899999990577
100
AcDbArc
 50
200.8065048584
 51
203.1934951416
  0
ARC
  5
1CD
330
1F
100
AcDbEntity
  8
0
  6
Continuous
 62
     7
370
    25
100
AcDbCircle
 10
34.6802346809
 20
92.0178196469
 30
0.0
 40
9.00000000000103
100
AcDbArc
 50
262.6445669499
 51
277.8910058405
  0
ARC
  5
1CE
330
1F
100
AcDbEntity
  8
0
  6
Continuous
 62
     7
370
    25
100
AcDbCircle
 10
55.7790901898
 20
90.6509633979
 30
0.0
 40
23.4999999998975
100
AcDbArc
 50
197.2364672397
 51
198.7635327603
  0
ARC
  5
1CF
330
1F
100
AcDbEntity
  8
0
  6
Continuous
 62
     7
370
    25
100
AcDbCircle
 10
39.5131754665
 20
77.1435573551
 30
0.0
 40
8.999999999999138
100
AcDbArc
 50
118.1089941606
 51
133.3554330509
  0
ARC
  5
1D0
330
1F
100
AcDbEntity
  8
0
  6
Continuous
 62
     7
370
    25
100
AcDbCircle
 10
55.7790901898
 20
90.6509633978
 30
0.0
 40
21.24899999989963
100
AcDbArc
 50
192.8065048583
 51
195.1934951416
  0
ARC
  5
1D1
330
1F
100
AcDbEntity
  8
0
  6
Continuous
 62
     7
370
    25
100
AcDbCircle
 10
35.075796915
 20
94.9409106438
 30
0.0
 40
9.000000000000433
100
AcDbArc
 50
254.6445669503
 51
269.8910058409
  0
ARC
  5
1D2
330
1F
100
AcDbEntity
  8
0
  6
Continuous
 62
     7
370
    25
100
AcDbCircle
 10
55.7790901899
 20
90.6509633979
 30
0.0
 40
23.50000000003733
100
AcDbArc
 50
189.2364672397
 51
190.7635327603
  0
ARC
  5
1D3
330
1F
100
AcDbEntity
  8
0
  6
Continuous
 62
     7
370
    25
100
AcDbCircle
 10
37.7916066455
 20
79.5387882942
 30
0.0
 40
8.999999999998428
100
AcDbArc
 50
110.1089941605
 51
125.3554330508
  0
ARC
  5
1D4
330
1F
100
AcDbEntity
  8
0
  6
Continuous
 62
     7
370
    25
100
AcDbCircle
 10
55.7790901898
 20
90.6509633978
 30
0.0
 40
21.24899999997596
100
AcDbArc
 50
184.8065048584
 51
187.1934951416
  0
ARC
  5
1D5
330
1F
100
AcDbEntity
  8
0
  6
Continuous
 62
     7
370
    25
100
AcDbCircle
 10
35.8743252032
 20
97.7805026972
 30
0.0
 40
9.000000000000934
100
AcDbArc
 50
246.6445669493
 51
261.8910058398
  0
ARC
  5
1D6
330
1F
100
AcDbEntity
  8
0
  6
Continuous
 62
     7
370
    25
100
AcDbCircle
 10
55.7790901899
 20
90.6509633979
 30
0.0
 40
23.50000000001823
100
AcDbArc
 50
181.2364672398
 51
182.7635327603
  0
ARC
  5
1D7
330
1F
100
AcDbEntity
  8
0
  6
Continuous
 62
     7
370
    25
100
AcDbCircle
 10
36.4201437313
 20
82.1503050818
 30
0.0
 40
8.999999999999432
100
AcDbArc
 50
102.1089941607
 51
117.3554330512
  0
ARC
  5
1D8
330
1F
100
AcDbEntity
  8
0
  6
Continuous
 62
     7
370
    25
100
AcDbCircle
 10
55.7790901898
 20
90.6509633979
 30
0.0
 40
21.2489999999688
100
AcDbArc
 50
176.8065048583
 51
179.1934951416
  0
ARC
  5
1D9
330
1F
100
AcDbEntity
  8
0
  6
Continuous
 62
     7
370
    25
100
AcDbCircle
 10
37.0602771005
 20
100.4813263779
 30
0.0
 40
9.00000000000147
100
AcDbArc
 50
238.6445669493
 51
253.8910058398
  0
ARC
  5
1DA
330
1F
100
AcDbEntity
  8
0
  6
Continuous
 62
     7
370
    25
100
AcDbCircle
 10
55.7790901898
 20
90.6509633979
 30
0.0
 40
23.49999999991165
100
AcDbArc
 50
173.2364672398
 51
174.7635327602
  0
ARC
  5
1DB
330
1F
100
AcDbEntity
  8
0
  6
Continuous
 62
     7
370
    25
100
AcDbCircle
 10
35.4254806894
 20
84.9272775141
 30
0.0
 40
9.000000000000426
100
AcDbArc
 50
94.1089941609
 51
109.3554330512
  0
ENDSEC
  0
SECTION
  2
OBJECTS
  0
DICTIONARY
  5
C
330
0
100
AcDbDictionary
281
     1
  3
ACAD_GROUP
350
D
  3
ACAD_LAYOUT
350
1A
  3
ACAD_MLINESTYLE
350
17
  3
ACAD_PLOTSETTINGS
350
19
  3
ACAD_PLOTSTYLENAME
350
E
  3
ACAD_SCALELIST
350
47
  0
DICTIONARY
  5
D
102
{ACAD_REACTORS
330
C
102
}
330
C
100
AcDbDictionary
281
     1
  0
DICTIONARY
  5
1A
102
{ACAD_REACTORS
330
C
102
}
330
C
100
AcDbDictionary
281
     1
  3
Layout1
350
1E
  3
Layout2
350
26
  3
Model
350
22
  0
DICTIONARY
  5
17
102
{ACAD_REACTORS
330
C
102
}
330
C
100
AcDbDictionary
281
     1
  3
Standard
350
18
  0
DICTIONARY
  5
19
102
{ACAD_REACTORS
330
C
102
}
330
C
100
AcDbDictionary
281
     1
  0
ACDBDICTIONARYWDFLT
  5
E
102
{ACAD_REACTORS
330
C
102
}
330
C
100
AcDbDictionary
281
     1
  3
Normal
350
F
100
AcDbDictionaryWithDefault
340
F
  0
DICTIONARY
  5
47
102
{ACAD_REACTORS
330
C
102
}
330
C
100
AcDbDictionary
281
     1
  3
A0
350
48
  3
A1
350
49
  3
A2
350
4A
  3
A3
350
4B
  3
A4
350
4C
  3
A5
350
4D
  3
A6
350
4E
  3
A7
350
4F
  3
A8
350
50
  3
A9
350
51
  3
B0
350
52
  3
B1
350
53
  3
B2
350
54
  3
B3
350
55
  3
B4
350
56
  3
B5
350
57
  3
B6
350
58
  3
B7
350
59
  3
B8
350
5A
  3
B9
350
5B
  3
C0
350
5C
  3
C1
350
5D
  3
C2
350
5E
  3
C3
350
5F
  3
C4
350
60
  3
C5
350
61
  3
C6
350
62
  3
C7
350
63
  3
C8
350
64
  3
C9
350
65
  3
D0
350
66
  3
D1
350
67
  3
D2
350
68
  0
LAYOUT
  5
1E
102
{ACAD_REACTORS
330
1A
102
}
330
1A
100
AcDbPlotSettings
  1

  2
none_device
  4

  6

 40
0.0
 41
0.0
 42
0.0
 43
0.0
 44
0.0
 45
0.0
 46
0.0
 47
0.0
 48
0.0
 49
0.0
140
0.0
141
0.0
142
1.0
143
1.0
 70
   688
 72
     1
 73
     0
 74
     5
  7

 75
    16
147
1.0
148
0.0
149
0.0
100
AcDbLayout
  1
Layout1
 70
     1
 71
     1
 10
0.0
 20
0.0
 11
420.0
 21
297.0
 12
0.0
 22
0.0
 32
0.0
 14
1.0000000000E+20
 24
1.0000000000E+20
 34
1.0000000000E+20
 15
-1.0000000000E+20
 25
-1.0000000000E+20
 35
-1.0000000000E+20
146
0.0
 13
0.0
 23
0.0
 33
0.0
 16
1.0
 26
0.0
 36
0.0
 17
0.0
 27
1.0
 37
0.0
 76
     0
330
1B
  0
LAYOUT
  5
26
102
{ACAD_REACTORS
330
1A
102
}
330
1A
100
AcDbPlotSettings
  1

  2
none_device
  4

  6

 40
0.0
 41
0.0
 42
0.0
 43
0.0
 44
0.0
 45
0.0
 46
0.0
 47
0.0
 48
0.0
 49
0.0
140
0.0
141
0.0
142
1.0
143
1.0
 70
   688
 72
     1
 73
     0
 74
     5
  7

 75
    16
147
1.0
148
0.0
149
0.0
100
AcDbLayout
  1
Layout2
 70
     1
 71
     2
 10
0.0
 20
0.0
 11
0.0
 21
0.0
 12
0.0
 22
0.0
 32
0.0
 14
0.0
 24
0.0
 34
0.0
 15
0.0
 25
0.0
 35
0.0
146
0.0
 13
0.0
 23
0.0
 33
0.0
 16
1.0
 26
0.0
 36
0.0
 17
0.0
 27
1.0
 37
0.0
 76
     0
330
23
  0
LAYOUT
  5
22
102
{ACAD_REACTORS
330
1A
102
}
330
1A
100
AcDbPlotSettings
  1

  2
none_device
  4
ANSI_A_(11.00_x_8.50_Inches)
  6

 40
6.35
 41
19.05
 42
6.35000508
 43
19.05000254
 44
279.4
 45
215.9
 46
-120.5179583859
 47
-323.5953824373
 48
0.0
 49
0.0
140
0.0
141
0.0
142
0.1791854506
143
1.0
 70
  1696
 72
     0
 73
     0
 74
     0
  7

 75
     0
147
0.0179189148
148
-1300.4909072572
149
0.0
100
AcDbLayout
  1
Model
 70
     1
 71
     0
 10
0.0
 20
0.0
 11
420.0
 21
297.0
 12
0.0
 22
0.0
 32
0.0
 14
32.2845621254
 24
67.1509633978
 34
0.0
 15
79.2736182543
 25
114.1134816745
 35
0.0
146
0.0
 13
0.0
 23
0.0
 33
0.0
 16
1.0
 26
0.0
 36
0.0
 17
0.0
 27
1.0
 37
0.0
 76
     0
330
1F
331
29
  0
MLINESTYLE
  5
18
102
{ACAD_REACTORS
330
17
102
}
330
17
100
AcDbMlineStyle
  2
Standard
 70
     0
  3

 62
   256
 51
90.0
 52
90.0
 71
     2
 49
0.5
 62
   256
  6
BYLAYER
 49
-0.5
 62
   256
  6
BYLAYER
  0
ACDBPLACEHOLDER
  5
F
102
{ACAD_REACTORS
330
E
102
}
330
E
  0
SCALE
  5
48
102
{ACAD_REACTORS
330
47
102
}
330
47
100
AcDbScale
 70
     0
300
1:1
140
1.0
141
1.0
290
     1
  0
SCALE
  5
49
102
{ACAD_REACTORS
330
47
102
}
330
47
100
AcDbScale
 70
     0
300
1:2
140
1.0
141
2.0
290
     0
  0
SCALE
  5
4A
102
{ACAD_REACTORS
330
47
102
}
330
47
100
AcDbScale
 70
     0
300
1:4
140
1.0
141
4.0
290
     0
  0
SCALE
  5
4B
102
{ACAD_REACTORS
330
47
102
}
330
47
100
AcDbScale
 70
     0
300
1:5
140
1.0
141
5.0
290
     0
  0
SCALE
  5
4C
102
{ACAD_REACTORS
330
47
102
}
330
47
100
AcDbScale
 70
     0
300
1:8
140
1.0
141
8.0
290
     0
  0
SCALE
  5
4D
102
{ACAD_REACTORS
330
47
102
}
330
47
100
AcDbScale
 70
     0
300
1:10
140
1.0
141
10.0
290
     0
  0
SCALE
  5
4E
102
{ACAD_REACTORS
330
47
102
}
330
47
100
AcDbScale
 70
     0
300
1:16
140
1.0
141
16.0
290
     0
  0
SCALE
  5
4F
102
{ACAD_REACTORS
330
47
102
}
330
47
100
AcDbScale
 70
     0
300
1:20
140
1.0
141
20.0
290
     0
  0
SCALE
  5
50
102
{ACAD_REACTORS
330
47
102
}
330
47
100
AcDbScale
 70
     0
300
1:30
140
1.0
141
30.0
290
     0
  0
SCALE
  5
51
102
{ACAD_REACTORS
330
47
102
}
330
47
100
AcDbScale
 70
     0
300
1:40
140
1.0
141
40.0
290
     0
  0
SCALE
  5
52
102
{ACAD_REACTORS
330
47
102
}
330
47
100
AcDbScale
 70
     0
300
1:50
140
1.0
141
50.0
290
     0
  0
SCALE
  5
53
102
{ACAD_REACTORS
330
47
102
}
330
47
100
AcDbScale
 70
     0
300
1:100
140
1.0
141
100.0
290
     0
  0
SCALE
  5
54
102
{ACAD_REACTORS
330
47
102
}
330
47
100
AcDbScale
 70
     0
300
2:1
140
2.0
141
1.0
290
     0
  0
SCALE
  5
55
102
{ACAD_REACTORS
330
47
102
}
330
47
100
AcDbScale
 70
     0
300
4:1
140
4.0
141
1.0
290
     0
  0
SCALE
  5
56
102
{ACAD_REACTORS
330
47
102
}
330
47
100
AcDbScale
 70
     0
300
8:1
140
8.0
141
1.0
290
     0
  0
SCALE
  5
57
102
{ACAD_REACTORS
330
47
102
}
330
47
100
AcDbScale
 70
     0
300
10:1
140
10.0
141
1.0
290
     0
  0
SCALE
  5
58
102
{ACAD_REACTORS
330
47
102
}
330
47
100
AcDbScale
 70
     0
300
100:1
140
100.0
141
1.0
290
     0
  0
SCALE
  5
59
102
{ACAD_REACTORS
330
47
102
}
330
47
100
AcDbScale
 70
     0
300
1/128" = 1'-0"
140
0.0078125
141
12.0
290
     0
  0
SCALE
  5
5A
102
{ACAD_REACTORS
330
47
102
}
330
47
100
AcDbScale
 70
     0
300
1/64" = 1'-0"
140
0.015625
141
12.0
290
     0
  0
SCALE
  5
5B
102
{ACAD_REACTORS
330
47
102
}
330
47
100
AcDbScale
 70
     0
300
1/32" = 1'-0"
140
0.03125
141
12.0
290
     0
  0
SCALE
  5
5C
102
{ACAD_REACTORS
330
47
102
}
330
47
100
AcDbScale
 70
     0
300
1/16" = 1'-0"
140
0.0625
141
12.0
290
     0
  0
SCALE
  5
5D
102
{ACAD_REACTORS
330
47
102
}
330
47
100
AcDbScale
 70
     0
300
3/32" = 1'-0"
140
0.09375
141
12.0
290
     0
  0
SCALE
  5
5E
102
{ACAD_REACTORS
330
47
102
}
330
47
100
AcDbScale
 70
     0
300
1/8" = 1'-0"
140
0.125
141
12.0
290
     0
  0
SCALE
  5
5F
102
{ACAD_REACTORS
330
47
102
}
330
47
100
AcDbScale
 70
     0
300
3/16" = 1'-0"
140
0.1875
141
12.0
290
     0
  0
SCALE
  5
60
102
{ACAD_REACTORS
330
47
102
}
330
47
100
AcDbScale
 70
     0
300
1/4" = 1'-0"
140
0.25
141
12.0
290
     0
  0
SCALE
  5
61
102
{ACAD_REACTORS
330
47
102
}
330
47
100
AcDbScale
 70
     0
300
3/8" = 1'-0"
140
0.375
141
12.0
290
     0
  0
SCALE
  5
62
102
{ACAD_REACTORS
330
47
102
}
330
47
100
AcDbScale
 70
     0
300
1/2" = 1'-0"
140
0.5
141
12.0
290
     0
  0
SCALE
  5
63
102
{ACAD_REACTORS
330
47
102
}
330
47
100
AcDbScale
 70
     0
300
3/4" = 1'-0"
140
0.75
141
12.0
290
     0
  0
SCALE
  5
64
102
{ACAD_REACTORS
330
47
102
}
330
47
100
AcDbScale
 70
     0
300
1" = 1'-0"
140
1.0
141
12.0
290
     0
  0
SCALE
  5
65
102
{ACAD_REACTORS
330
47
102
}
330
47
100
AcDbScale
 70
     0
300
1-1/2" = 1'-0"
140
1.5
141
12.0
290
     0
  0
SCALE
  5
66
102
{ACAD_REACTORS
330
47
102
}
330
47
100
AcDbScale
 70
     0
300
3" = 1'-0"
140
3.0
141
12.0
290
     0
  0
SCALE
  5
67
102
{ACAD_REACTORS
330
47
102
}
330
47
100
AcDbScale
 70
     0
300
6" = 1'-0"
140
6.0
141
12.0
290
     0
  0
SCALE
  5
68
102
{ACAD_REACTORS
330
47
102
}
330
47
100
AcDbScale
 70
     0
300
1'-0" = 1'-0"
140
12.0
141
12.0
290
     0
  0
ENDSEC
  0
EOF
