  0
SECTION
  2
HEADER
  9
$ACADVER
  1
AC1015
  9
$ACADMAINTVER
 70
     6
  9
$DWGCODEPAGE
  3
ANSI_950
  9
$INSBASE
 10
0.0
 20
0.0
 30
0.0
  9
$EXTMIN
 10
0.0
 20
0.0
 30
0.0
  9
$EXTMAX
 10
210.0
 20
297.0
 30
0.0
  9
$LIMMIN
 10
0.0
 20
0.0
  9
$LIMMAX
 10
210.0
 20
297.0
  9
$ORTHOMODE
 70
     0
  9
$REGENMODE
 70
     1
  9
$FILLMODE
 70
     1
  9
$QTEXTMODE
 70
     0
  9
$MIRRTEXT
 70
     1
  9
$LTSCALE
 40
1.0
  9
$ATTMODE
 70
     1
  9
$TEXTSIZE
 40
3.5
  9
$TRACEWID
 40
1.0
  9
$TEXTSTYLE
  7
Standard
  9
$CLAYER
  8
0
  9
$CELTYPE
  6
ByLayer
  9
$CECOLOR
 62
   256
  9
$CELTSCALE
 40
1.0
  9
$DISPSILH
 70
     0
  9
$DIMSCALE
 40
1.0
  9
$DIMASZ
 40
3.302
  9
$DIMEXO
 40
1.0
  9
$DIMDLI
 40
3.75
  9
$DIMRND
 40
0.0
  9
$DIMDLE
 40
0.0
  9
$DIMEXE
 40
1.0
  9
$DIMTP
 40
0.0
  9
$DIMTM
 40
0.0
  9
$DIMTXT
 40
3.5
  9
$DIMCEN
 40
2.5
  9
$DIMTSZ
 40
0.0
  9
$DIMTOL
 70
     0
  9
$DIMLIM
 70
     0
  9
$DIMTIH
 70
     1
  9
$DIMTOH
 70
     1
  9
$DIMSE1
 70
     0
  9
$DIMSE2
 70
     0
  9
$DIMTAD
 70
     1
  9
$DIMZIN
 70
     0
  9
$DIMBLK
  1

  9
$DIMASO
 70
     1
  9
$DIMSHO
 70
     1
  9
$DIMPOST
  1

  9
$DIMAPOST
  1

  9
$DIMALT
 70
     0
  9
$DIMALTD
 70
     3
  9
$DIMALTF
 40
0.0393700787
  9
$DIMLFAC
 40
0.5
  9
$DIMTOFL
 70
     1
  9
$DIMTVP
 40
0.0
  9
$DIMTIX
 70
     0
  9
$DIMSOXD
 70
     0
  9
$DIMSAH
 70
     0
  9
$DIMBLK1
  1

  9
$DIMBLK2
  1

  9
$DIMSTYLE
  2
ISO-25
  9
$DIMCLRD
 70
     0
  9
$DIMCLRE
 70
     0
  9
$DIMCLRT
 70
     0
  9
$DIMTFAC
 40
1.0
  9
$DIMGAP
 40
1.524
  9
$DIMJUST
 70
     0
  9
$DIMSD1
 70
     0
  9
$DIMSD2
 70
     0
  9
$DIMTOLJ
 70
     0
  9
$DIMTZIN
 70
     0
  9
$DIMALTZ
 70
     0
  9
$DIMALTTZ
 70
     0
  9
$DIMUPT
 70
     0
  9
$DIMDEC
 70
     2
  9
$DIMTDEC
 70
     2
  9
$DIMALTU
 70
     2
  9
$DIMALTTD
 70
     3
  9
$DIMTXSTY
  7
Standard
  9
$DIMAUNIT
 70
     0
  9
$DIMADEC
 70
     2
  9
$DIMALTRND
 40
0.0
  9
$DIMAZIN
 70
     0
  9
$DIMDSEP
 70
    44
  9
$DIMATFIT
 70
     3
  9
$DIMFRAC
 70
     0
  9
$DIMLDRBLK
  1

  9
$DIMLUNIT
 70
     2
  9
$DIMLWD
 70
    -2
  9
$DIMLWE
 70
    -2
  9
$DIMTMOVE
 70
     0
  9
$LUNITS
 70
     2
  9
$LUPREC
 70
     2
  9
$SKETCHINC
 40
1.0
  9
$FILLETRAD
 40
10.0
  9
$AUNITS
 70
     0
  9
$AUPREC
 70
     2
  9
$MENU
  1
.
  9
$ELEVATION
 40
0.0
  9
$PELEVATION
 40
0.0
  9
$THICKNESS
 40
0.0
  9
$LIMCHECK
 70
     0
  9
$CHAMFERA
 40
0.0
  9
$CHAMFERB
 40
0.0
  9
$CHAMFERC
 40
0.0
  9
$CHAMFERD
 40
0.0
  9
$SKPOLY
 70
     0
  9
$TDCREATE
 40
2458932.81886059
  9
$TDUCREATE
 40
2458932.485527257
  9
$TDUPDATE
 40
2458932.818861354
  9
$TDUUPDATE
 40
2458932.485528021
  9
$TDINDWG
 40
0.0000000116
  9
$TDUSRTIMER
 40
0.0000000116
  9
$USRTIMER
 70
     1
  9
$ANGBASE
 50
0.0
  9
$ANGDIR
 70
     0
  9
$PDMODE
 70
     0
  9
$PDSIZE
 40
-1.0
  9
$PLINEWID
 40
0.0
  9
$SPLFRAME
 70
     0
  9
$SPLINETYPE
 70
     6
  9
$SPLINESEGS
 70
     8
  9
$HANDSEED
  5
12A
  9
$SURFTAB1
 70
     6
  9
$SURFTAB2
 70
     6
  9
$SURFTYPE
 70
     6
  9
$SURFU
 70
     6
  9
$SURFV
 70
     6
  9
$UCSBASE
  2

  9
$UCSNAME
  2

  9
$UCSORG
 10
0.0
 20
0.0
 30
0.0
  9
$UCSXDIR
 10
1.0
 20
0.0
 30
0.0
  9
$UCSYDIR
 10
0.0
 20
1.0
 30
0.0
  9
$UCSORTHOREF
  2

  9
$UCSORTHOVIEW
 70
     0
  9
$UCSORGTOP
 10
0.0
 20
0.0
 30
0.0
  9
$UCSORGBOTTOM
 10
0.0
 20
0.0
 30
0.0
  9
$UCSORGLEFT
 10
0.0
 20
0.0
 30
0.0
  9
$UCSORGRIGHT
 10
0.0
 20
0.0
 30
0.0
  9
$UCSORGFRONT
 10
0.0
 20
0.0
 30
0.0
  9
$UCSORGBACK
 10
0.0
 20
0.0
 30
0.0
  9
$PUCSBASE
  2

  9
$PUCSNAME
  2

  9
$PUCSORG
 10
0.0
 20
0.0
 30
0.0
  9
$PUCSXDIR
 10
1.0
 20
0.0
 30
0.0
  9
$PUCSYDIR
 10
0.0
 20
1.0
 30
0.0
  9
$PUCSORTHOREF
  2

  9
$PUCSORTHOVIEW
 70
     0
  9
$PUCSORGTOP
 10
0.0
 20
0.0
 30
0.0
  9
$PUCSORGBOTTOM
 10
0.0
 20
0.0
 30
0.0
  9
$PUCSORGLEFT
 10
0.0
 20
0.0
 30
0.0
  9
$PUCSORGRIGHT
 10
0.0
 20
0.0
 30
0.0
  9
$PUCSORGFRONT
 10
0.0
 20
0.0
 30
0.0
  9
$PUCSORGBACK
 10
0.0
 20
0.0
 30
0.0
  9
$USERI1
 70
     0
  9
$USERI2
 70
     0
  9
$USERI3
 70
     0
  9
$USERI4
 70
     0
  9
$USERI5
 70
     0
  9
$USERR1
 40
0.0
  9
$USERR2
 40
0.0
  9
$USERR3
 40
0.0
  9
$USERR4
 40
0.0
  9
$USERR5
 40
0.0
  9
$WORLDVIEW
 70
     1
  9
$SHADEDGE
 70
     3
  9
$SHADEDIF
 70
    70
  9
$TILEMODE
 70
     1
  9
$MAXACTVP
 70
    64
  9
$PINSBASE
 10
0.0
 20
0.0
 30
0.0
  9
$PLIMCHECK
 70
     0
  9
$PEXTMIN
 10
1.0000000000E+20
 20
1.0000000000E+20
 30
1.0000000000E+20
  9
$PEXTMAX
 10
-1.0000000000E+20
 20
-1.0000000000E+20
 30
-1.0000000000E+20
  9
$PLIMMIN
 10
0.0
 20
0.0
  9
$PLIMMAX
 10
420.0
 20
297.0
  9
$UNITMODE
 70
     0
  9
$VISRETAIN
 70
     1
  9
$PLINEGEN
 70
     0
  9
$PSLTSCALE
 70
     1
  9
$TREEDEPTH
 70
  3020
  9
$CMLSTYLE
  2
Standard
  9
$CMLJUST
 70
     0
  9
$CMLSCALE
 40
20.0
  9
$PROXYGRAPHICS
 70
     1
  9
$MEASUREMENT
 70
     1
  9
$CELWEIGHT
370
    -1
  9
$ENDCAPS
280
     0
  9
$JOINSTYLE
280
     0
  9
$LWDISPLAY
290
     1
  9
$INSUNITS
 70
     4
  9
$HYPERLINKBASE
  1

  9
$STYLESHEET
  1

  9
$XEDIT
290
     1
  9
$CEPSNTYPE
380
     0
  9
$PSTYLEMODE
290
     1
  9
$FINGERPRINTGUID
  2
{A811A157-7A25-4704-84B9-1CAA10DC6A60}
  9
$VERSIONGUID
  2
{FAEB1C32-E019-11D5-929B-00C0DF256EC4}
  9
$EXTNAMES
290
     1
  9
$PSVPSCALE
 40
0.0
  9
$OLESTARTUP
290
     0
  0
ENDSEC
  0
SECTION
  2
CLASSES
  0
CLASS
  1
ACDBDICTIONARYWDFLT
  2
AcDbDictionaryWithDefault
  3
ObjectDBX Classes
 90
        0
280
     0
281
     0
  0
CLASS
  1
VISUALSTYLE
  2
AcDbVisualStyle
  3
ObjectDBX Classes
 90
     4095
280
     0
281
     0
  0
CLASS
  1
MATERIAL
  2
AcDbMaterial
  3
ObjectDBX Classes
 90
     1153
280
     0
281
     0
  0
CLASS
  1
SCALE
  2
AcDbScale
  3
ObjectDBX Classes
 90
     1153
280
     0
281
     0
  0
CLASS
  1
TABLESTYLE
  2
AcDbTableStyle
  3
ObjectDBX Classes
 90
     4095
280
     0
281
     0
  0
CLASS
  1
MLEADERSTYLE
  2
AcDbMLeaderStyle
  3
ACDB_MLEADERSTYLE_CLASS
 90
     4095
280
     0
281
     0
  0
CLASS
  1
SUN
  2
AcDbSun
  3
SCENEOE
 90
     1153
280
     0
281
     0
  0
CLASS
  1
ACDBPLACEHOLDER
  2
AcDbPlaceHolder
  3
ObjectDBX Classes
 90
        0
280
     0
281
     0
  0
CLASS
  1
LAYOUT
  2
AcDbLayout
  3
ObjectDBX Classes
 90
        0
280
     0
281
     0
  0
ENDSEC
  0
SECTION
  2
TABLES
  0
TABLE
  2
VPORT
  5
8
330
0
100
AcDbSymbolTable
 70
     1
  0
VPORT
  5
29
330
8
100
AcDbSymbolTableRecord
100
AcDbViewportTableRecord
  2
*Active
 70
     0
 10
0.0
 20
0.0
 11
1.0
 21
1.0
 12
105.0
 22
148.5
 13
0.0
 23
0.0
 14
10.0
 24
10.0
 15
10.0
 25
10.0
 16
0.0
 26
0.0
 36
1.0
 17
0.0
 27
0.0
 37
0.0
 40
297.0
 41
0.7070707071
 42
50.0
 43
0.0
 44
0.0
 50
0.0
 51
0.0
 71
     0
 72
  2000
 73
     1
 74
     3
 75
     0
 76
     0
 77
     0
 78
     0
281
     0
 65
     1
110
0.0
120
0.0
130
0.0
111
1.0
121
0.0
131
0.0
112
0.0
122
1.0
132
0.0
 79
     0
146
0.0
  0
ENDTAB
  0
TABLE
  2
LTYPE
  5
5
330
0
100
AcDbSymbolTable
 70
     6
  0
LTYPE
  5
14
330
5
100
AcDbSymbolTableRecord
100
AcDbLinetypeTableRecord
  2
ByBlock
 70
     0
  3

 72
    65
 73
     0
 40
0.0
  0
LTYPE
  5
15
330
5
100
AcDbSymbolTableRecord
100
AcDbLinetypeTableRecord
  2
ByLayer
 70
     0
  3

 72
    65
 73
     0
 40
0.0
  0
LTYPE
  5
16
330
5
100
AcDbSymbolTableRecord
100
AcDbLinetypeTableRecord
  2
Continuous
 70
     0
  3
Solid line
 72
    65
 73
     0
 40
0.0
  0
LTYPE
  5
6E
330
5
100
AcDbSymbolTableRecord
100
AcDbLinetypeTableRecord
  2
HIDDEN
 70
     0
  3
Hidden __ __ __ __ __ __ __ __ __ __ __ __ __ __
 72
    65
 73
     2
 40
1.905
 49
1.27
 74
     0
 49
-0.635
 74
     0
  0
LTYPE
  5
6F
330
5
100
AcDbSymbolTableRecord
100
AcDbLinetypeTableRecord
  2
PHANTOM
 70
     0
  3
Phantom ______  __  __  ______  __  __  ______
 72
    65
 73
     6
 40
12.7
 49
6.35
 74
     0
 49
-1.27
 74
     0
 49
1.27
 74
     0
 49
-1.27
 74
     0
 49
1.27
 74
     0
 49
-1.27
 74
     0
  0
LTYPE
  5
70
330
5
100
AcDbSymbolTableRecord
100
AcDbLinetypeTableRecord
  2
CENTER
 70
     0
  3
Center ____ _ ____ _ ____ _ ____ _ ____ _ ____
 72
    65
 73
     4
 40
10.16
 49
6.35
 74
     0
 49
-1.27
 74
     0
 49
1.27
 74
     0
 49
-1.27
 74
     0
  0
LTYPE
  5
71
330
5
100
AcDbSymbolTableRecord
100
AcDbLinetypeTableRecord
  2
CENTERX2
 70
     0
  3
Center (2x) ________  __  ________  __  _____
 72
    65
 73
     4
 40
20.32
 49
12.7
 74
     0
 49
-2.54
 74
     0
 49
2.54
 74
     0
 49
-2.54
 74
     0
  0
LTYPE
  5
72
330
5
100
AcDbSymbolTableRecord
100
AcDbLinetypeTableRecord
  2
DOT2
 70
     0
  3
Dot (.5x) ........................................
 72
    65
 73
     2
 40
0.635
 49
0.0
 74
     0
 49
-0.635
 74
     0
  0
ENDTAB
  0
TABLE
  2
LAYER
  5
2
330
0
100
AcDbSymbolTable
 70
     2
  0
LAYER
  5
10
330
2
100
AcDbSymbolTableRecord
100
AcDbLayerTableRecord
  2
0
 70
     0
 62
     7
  6
Continuous
370
    -3
390
F
  0
LAYER
  5
73
330
2
100
AcDbSymbolTableRecord
100
AcDbLayerTableRecord
  2
FORMAT
 70
     0
 62
     7
  6
Continuous
370
    -3
390
F
  0
ENDTAB
  0
TABLE
  2
STYLE
  5
3
330
0
100
AcDbSymbolTable
 70
     1
  0
STYLE
  5
11
330
3
100
AcDbSymbolTableRecord
100
AcDbTextStyleTableRecord
  2
Standard
 70
     0
 40
0.0
 41
1.0
 50
0.0
 71
     0
 42
3.5
  3
txt
  4

  0
ENDTAB
  0
TABLE
  2
VIEW
  5
6
330
0
100
AcDbSymbolTable
 70
     0
  0
ENDTAB
  0
TABLE
  2
UCS
  5
7
330
0
100
AcDbSymbolTable
 70
     0
  0
ENDTAB
  0
TABLE
  2
APPID
  5
9
330
0
100
AcDbSymbolTable
 70
     1
  0
APPID
  5
12
330
9
100
AcDbSymbolTableRecord
100
AcDbRegAppTableRecord
  2
ACAD
 70
     0
  0
ENDTAB
  0
TABLE
  2
DIMSTYLE
  5
A
330
0
100
AcDbSymbolTable
 70
     1
100
AcDbDimStyleTable
  0
DIMSTYLE
105
27
330
A
100
AcDbSymbolTableRecord
100
AcDbDimStyleTableRecord
  2
ISO-25
 70
     0
 41
2.5
 42
0.625
 43
3.75
 44
1.25
 73
     0
 74
     0
 77
     1
 78
     8
140
2.5
141
2.5
143
0.0393700787
147
0.625
171
     3
172
     1
178
     0
271
     2
272
     2
274
     3
278
    44
283
     0
284
     8
340
11
  0
ENDTAB
  0
TABLE
  2
BLOCK_RECORD
  5
1
330
0
100
AcDbSymbolTable
 70
     1
  0
BLOCK_RECORD
  5
1F
330
1
100
AcDbSymbolTableRecord
100
AcDbBlockTableRecord
  2
*Model_Space
340
22
  0
BLOCK_RECORD
  5
1B
330
1
100
AcDbSymbolTableRecord
100
AcDbBlockTableRecord
  2
*Paper_Space
340
1E
  0
BLOCK_RECORD
  5
23
330
1
100
AcDbSymbolTableRecord
100
AcDbBlockTableRecord
  2
*Paper_Space0
340
26
  0
ENDTAB
  0
ENDSEC
  0
SECTION
  2
BLOCKS
  0
BLOCK
  5
20
330
1F
100
AcDbEntity
  8
0
100
AcDbBlockBegin
  2
*Model_Space
 70
     0
 10
0.0
 20
0.0
 30
0.0
  3
*Model_Space
  1

  0
ENDBLK
  5
21
330
1F
100
AcDbEntity
  8
0
100
AcDbBlockEnd
  0
BLOCK
  5
1C
330
1B
100
AcDbEntity
 67
     1
  8
0
100
AcDbBlockBegin
  2
*Paper_Space
 70
     0
 10
0.0
 20
0.0
 30
0.0
  3
*Paper_Space
  1

  0
ENDBLK
  5
1D
330
1B
100
AcDbEntity
 67
     1
  8
0
100
AcDbBlockEnd
  0
BLOCK
  5
24
330
23
100
AcDbEntity
  8
0
100
AcDbBlockBegin
  2
*Paper_Space0
 70
     0
 10
0.0
 20
0.0
 30
0.0
  3
*Paper_Space0
  1

  0
ENDBLK
  5
25
330
23
100
AcDbEntity
  8
0
100
AcDbBlockEnd
  0
ENDSEC
  0
SECTION
  2
ENTITIES
  0
CIRCLE
  5
74
330
1F
100
AcDbEntity
  8
0
  6
CENTERX2
 62
     7
100
AcDbCircle
 10
111.5581803797
 20
181.3019267957
 30
0.0
 40
31.89999999999999
  0
ARC
  5
75
330
1F
100
AcDbEntity
  8
0
  6
Continuous
 62
     7
370
    25
100
AcDbCircle
 10
111.5581803797
 20
181.3019267957
 30
0.0
 40
47.00000000000002
100
AcDbArc
 50
173.2364672397
 51
174.7635327603
  0
ARC
  5
76
330
1F
100
AcDbEntity
  8
0
  6
Continuous
 62
     7
370
    25
100
AcDbCircle
 10
70.8509613788
 20
169.8545550282
 30
0.0
 40
18.0
100
AcDbArc
 50
94.1089941602
 51
109.3554330507
  0
ARC
  5
77
330
1F
100
AcDbEntity
  8
0
  6
Continuous
 62
     7
370
    25
100
AcDbCircle
 10
111.5581803797
 20
181.3019267957
 30
0.0
 40
42.49799999999999
100
AcDbArc
 50
168.8065048584
 51
171.1934951416
  0
ARC
  5
78
330
1F
100
AcDbEntity
  8
0
  6
Continuous
 62
     7
370
    25
100
AcDbCircle
 10
77.2211388044
 20
205.9816264501
 30
0.0
 40
17.99999999999999
100
AcDbArc
 50
230.6445669493
 51
245.8910058398
  0
ARC
  5
79
330
1F
100
AcDbEntity
  8
0
  6
Continuous
 62
     7
370
    25
100
AcDbCircle
 10
111.5581803797
 20
181.3019267957
 30
0.0
 40
47.00000000000001
100
AcDbArc
 50
165.2364672397
 51
166.7635327603
  0
ARC
  5
7A
330
1F
100
AcDbEntity
  8
0
  6
Continuous
 62
     7
370
    25
100
AcDbCircle
 10
69.6539550091
 20
175.6313099632
 30
0.0
 40
18.00000000000001
100
AcDbArc
 50
86.1089941602
 51
101.3554330507
  0
ARC
  5
7B
330
1F
100
AcDbEntity
  8
0
  6
Continuous
 62
     7
370
    25
100
AcDbCircle
 10
111.5581803797
 20
181.3019267957
 30
0.0
 40
42.49799999999999
100
AcDbArc
 50
160.8065048584
 51
163.1934951416
  0
ARC
  5
7C
330
1F
100
AcDbEntity
  8
0
  6
Continuous
 62
     7
370
    25
100
AcDbCircle
 10
80.9900548643
 20
210.5202378634
 30
0.0
 40
18.0
100
AcDbArc
 50
222.6445669493
 51
237.8910058398
  0
ARC
  5
7D
330
1F
100
AcDbEntity
  8
0
  6
Continuous
 62
     7
370
    25
100
AcDbCircle
 10
111.5581803797
 20
181.3019267957
 30
0.0
 40
47.00000000000001
100
AcDbArc
 50
157.2364672397
 51
158.7635327603
  0
ARC
  5
7E
330
1F
100
AcDbEntity
  8
0
  6
Continuous
 62
     7
370
    25
100
AcDbCircle
 10
69.2725667209
 20
181.5184370046
 30
0.0
 40
17.99999999999999
100
AcDbArc
 50
78.1089941602
 51
93.3554330507
  0
ARC
  5
7F
330
1F
100
AcDbEntity
  8
0
  6
Continuous
 62
     7
370
    25
100
AcDbCircle
 10
111.5581803797
 20
181.3019267957
 30
0.0
 40
42.498
100
AcDbArc
 50
152.8065048584
 51
155.1934951416
  0
ARC
  5
80
330
1F
100
AcDbEntity
  8
0
  6
Continuous
 62
     7
370
    25
100
AcDbCircle
 10
85.3539447166
 20
214.4901480872
 30
0.0
 40
18.00000000000001
100
AcDbArc
 50
214.6445669493
 51
229.8910058398
  0
ARC
  5
81
330
1F
100
AcDbEntity
  8
0
  6
Continuous
 62
     7
370
    25
100
AcDbCircle
 10
111.5581803797
 20
181.3019267957
 30
0.0
 40
47.00000000000001
100
AcDbArc
 50
149.2364672397
 51
150.7635327603
  0
ARC
  5
82
330
1F
100
AcDbEntity
  8
0
  6
Continuous
 62
     7
370
    25
100
AcDbCircle
 10
69.7142198034
 20
187.401349921
 30
0.0
 40
17.99999999999999
100
AcDbArc
 50
70.1089941602
 51
85.3554330507
  0
ARC
  5
83
330
1F
100
AcDbEntity
  8
0
  6
Continuous
 62
     7
370
    25
100
AcDbCircle
 10
111.5581803797
 20
181.3019267957
 30
0.0
 40
42.49799999999999
100
AcDbArc
 50
144.8065048584
 51
147.1934951416
  0
ARC
  5
84
330
1F
100
AcDbEntity
  8
0
  6
Continuous
 62
     7
370
    25
100
AcDbCircle
 10
90.2278702093
 20
217.8140873345
 30
0.0
 40
18.00000000000001
100
AcDbArc
 50
206.6445669493
 51
221.8910058398
  0
ARC
  5
85
330
1F
100
AcDbEntity
  8
0
  6
Continuous
 62
     7
370
    25
100
AcDbCircle
 10
111.5581803797
 20
181.3019267957
 30
0.0
 40
46.99999999999999
100
AcDbArc
 50
141.2364672397
 51
142.7635327603
  0
ARC
  5
86
330
1F
100
AcDbEntity
  8
0
  6
Continuous
 62
     7
370
    25
100
AcDbCircle
 10
70.9703179817
 20
193.1655445043
 30
0.0
 40
18.0
100
AcDbArc
 50
62.1089941602
 51
77.3554330507
  0
ARC
  5
87
330
1F
100
AcDbEntity
  8
0
  6
Continuous
 62
     7
370
    25
100
AcDbCircle
 10
111.5581803797
 20
181.3019267957
 30
0.0
 40
42.49800000000001
100
AcDbArc
 50
136.8065048584
 51
139.1934951416
  0
ARC
  5
88
330
1F
100
AcDbEntity
  8
0
  6
Continuous
 62
     7
370
    25
100
AcDbCircle
 10
95.5169659265
 20
220.4273589089
 30
0.0
 40
18.00000000000002
100
AcDbArc
 50
198.6445669493
 51
213.8910058398
  0
ARC
  5
89
330
1F
100
AcDbEntity
  8
0
  6
Continuous
 62
     7
370
    25
100
AcDbCircle
 10
111.5581803797
 20
181.3019267957
 30
0.0
 40
46.99999999999999
100
AcDbArc
 50
133.2364672397
 51
134.7635327603
  0
ARC
  5
8A
330
1F
100
AcDbEntity
  8
0
  6
Continuous
 62
     7
370
    25
100
AcDbCircle
 10
73.0164127336
 20
198.6988272635
 30
0.0
 40
18.0
100
AcDbArc
 50
54.1089941602
 51
69.3554330507
  0
ARC
  5
8B
330
1F
100
AcDbEntity
  8
0
  6
Continuous
 62
     7
370
    25
100
AcDbCircle
 10
111.5581803797
 20
181.3019267957
 30
0.0
 40
42.498
100
AcDbArc
 50
128.8065048584
 51
131.1934951416
  0
ARC
  5
8C
330
1F
100
AcDbEntity
  8
0
  6
Continuous
 62
     7
370
    25
100
AcDbCircle
 10
101.1182856365
 20
222.2790984517
 30
0.0
 40
17.99999999999999
100
AcDbArc
 50
190.6445669493
 51
205.8910058398
  0
ARC
  5
8D
330
1F
100
AcDbEntity
  8
0
  6
Continuous
 62
     7
370
    25
100
AcDbCircle
 10
111.5581803797
 20
181.3019267957
 30
0.0
 40
47.00000000000001
100
AcDbArc
 50
125.2364672397
 51
126.7635327603
  0
ARC
  5
8E
330
1F
100
AcDbEntity
  8
0
  6
Continuous
 62
     7
370
    25
100
AcDbCircle
 10
75.8126791521
 20
203.8934991439
 30
0.0
 40
18.00000000000001
100
AcDbArc
 50
46.1089941602
 51
61.3554330507
  0
ARC
  5
8F
330
1F
100
AcDbEntity
  8
0
  6
Continuous
 62
     7
370
    25
100
AcDbCircle
 10
111.5581803797
 20
181.3019267957
 30
0.0
 40
42.498
100
AcDbArc
 50
120.8065048584
 51
123.1934951416
  0
ARC
  5
90
330
1F
100
AcDbEntity
  8
0
  6
Continuous
 62
     7
370
    25
100
AcDbCircle
 10
106.9228060224
 20
223.3332639591
 30
0.0
 40
18.00000000000001
100
AcDbArc
 50
182.6445669493
 51
197.8910058398
  0
ARC
  5
91
330
1F
100
AcDbEntity
  8
0
  6
Continuous
 62
     7
370
    25
100
AcDbCircle
 10
111.5581803797
 20
181.3019267957
 30
0.0
 40
47.00000000000001
100
AcDbArc
 50
117.2364672397
 51
118.7635327603
  0
ARC
  5
92
330
1F
100
AcDbEntity
  8
0
  6
Continuous
 62
     7
370
    25
100
AcDbCircle
 10
79.3046910921
 20
208.648451766
 30
0.0
 40
18.00000000000003
100
AcDbArc
 50
38.1089941602
 51
53.3554330507
  0
ARC
  5
93
330
1F
100
AcDbEntity
  8
0
  6
Continuous
 62
     7
370
    25
100
AcDbCircle
 10
111.5581803797
 20
181.3019267957
 30
0.0
 40
42.49799999999998
100
AcDbArc
 50
112.8065048584
 51
115.1934951416
  0
ARC
  5
94
330
1F
100
AcDbEntity
  8
0
  6
Continuous
 62
     7
370
    25
100
AcDbCircle
 10
112.8175486975
 20
223.5693372986
 30
0.0
 40
18.0
100
AcDbArc
 50
174.6445669493
 51
189.8910058398
  0
ARC
  5
95
330
1F
100
AcDbEntity
  8
0
  6
Continuous
 62
     7
370
    25
100
AcDbCircle
 10
111.5581803797
 20
181.3019267957
 30
0.0
 40
47.00000000000001
100
AcDbArc
 50
109.2364672397
 51
110.7635327603
  0
ARC
  5
96
330
1F
100
AcDbEntity
  8
0
  6
Continuous
 62
     7
370
    25
100
AcDbCircle
 10
83.4244805133
 20
212.8711353858
 30
0.0
 40
18.00000000000001
100
AcDbArc
 50
30.1089941602
 51
45.3554330507
  0
ARC
  5
97
330
1F
100
AcDbEntity
  8
0
  6
Continuous
 62
     7
370
    25
100
AcDbCircle
 10
111.5581803797
 20
181.3019267957
 30
0.0
 40
42.498
100
AcDbArc
 50
104.8065048584
 51
107.1934951416
  0
ARC
  5
98
330
1F
100
AcDbEntity
  8
0
  6
Continuous
 62
     7
370
    25
100
AcDbCircle
 10
118.6877792009
 20
222.982723571
 30
0.0
 40
18.0
100
AcDbArc
 50
166.6445669493
 51
181.8910058398
  0
ARC
  5
99
330
1F
100
AcDbEntity
  8
0
  6
Continuous
 62
     7
370
    25
100
AcDbCircle
 10
111.5581803797
 20
181.3019267957
 30
0.0
 40
47.00000000000001
100
AcDbArc
 50
101.2364672397
 51
102.7635327603
  0
ARC
  5
9A
330
1F
100
AcDbEntity
  8
0
  6
Continuous
 62
     7
370
    25
100
AcDbCircle
 10
88.0918604008
 20
216.4793602698
 30
0.0
 40
18.0
100
AcDbArc
 50
22.1089941602
 51
37.3554330507
  0
ARC
  5
9B
330
1F
100
AcDbEntity
  8
0
  6
Continuous
 62
     7
370
    25
100
AcDbCircle
 10
111.5581803797
 20
181.3019267957
 30
0.0
 40
42.49799999999998
100
AcDbArc
 50
96.8065048584
 51
99.1934951416
  0
ARC
  5
9C
330
1F
100
AcDbEntity
  8
0
  6
Continuous
 62
     7
370
    25
100
AcDbCircle
 10
124.4192401729
 20
221.5848405455
 30
0.0
 40
18.0
100
AcDbArc
 50
158.6445669493
 51
173.8910058398
  0
ARC
  5
9D
330
1F
100
AcDbEntity
  8
0
  6
Continuous
 62
     7
370
    25
100
AcDbCircle
 10
111.5581803797
 20
181.3019267957
 30
0.0
 40
47.00000000000001
100
AcDbArc
 50
93.2364672397
 51
94.7635327603
  0
ARC
  5
9E
330
1F
100
AcDbEntity
  8
0
  6
Continuous
 62
     7
370
    25
100
AcDbCircle
 10
93.2159855141
 20
219.4028964249
 30
0.0
 40
18.0
100
AcDbArc
 50
14.1089941602
 51
29.3554330507
  0
ARC
  5
9F
330
1F
100
AcDbEntity
  8
0
  6
Continuous
 62
     7
370
    25
100
AcDbCircle
 10
111.5581803797
 20
181.3019267957
 30
0.0
 40
42.49799999999995
100
AcDbArc
 50
88.8065048584
 51
91.1934951416
  0
ARC
  5
A0
330
1F
100
AcDbEntity
  8
0
  6
Continuous
 62
     7
370
    25
100
AcDbCircle
 10
129.9003752454
 20
219.4028964249
 30
0.0
 40
18.0
100
AcDbArc
 50
150.6445669493
 51
165.8910058398
  0
ARC
  5
A1
330
1F
100
AcDbEntity
  8
0
  6
Continuous
 62
     7
370
    25
100
AcDbCircle
 10
111.5581803797
 20
181.3019267957
 30
0.0
 40
47.00000000000001
100
AcDbArc
 50
85.2364672398
 51
86.7635327603
  0
ARC
  5
A2
330
1F
100
AcDbEntity
  8
0
  6
Continuous
 62
     7
370
    25
100
AcDbCircle
 10
98.6971205866
 20
221.5848405455
 30
0.0
 40
17.99999999999999
100
AcDbArc
 50
6.1089941602
 51
21.3554330507
  0
ARC
  5
A3
330
1F
100
AcDbEntity
  8
0
  6
Continuous
 62
     7
370
    25
100
AcDbCircle
 10
111.5581803797
 20
181.3019267957
 30
0.0
 40
42.49799999999997
100
AcDbArc
 50
80.8065048584
 51
83.1934951416
  0
ARC
  5
A4
330
1F
100
AcDbEntity
  8
0
  6
Continuous
 62
     7
370
    25
100
AcDbCircle
 10
135.0245003587
 20
216.4793602698
 30
0.0
 40
18.0
100
AcDbArc
 50
142.6445669493
 51
157.8910058398
  0
ARC
  5
A5
330
1F
100
AcDbEntity
  8
0
  6
Continuous
 62
     7
370
    25
100
AcDbCircle
 10
111.5581803797
 20
181.3019267957
 30
0.0
 40
47.0
100
AcDbArc
 50
77.2364672397
 51
78.7635327603
  0
ARC
  5
A6
330
1F
100
AcDbEntity
  8
0
  6
Continuous
 62
     7
370
    25
100
AcDbCircle
 10
104.4285815586
 20
222.982723571
 30
0.0
 40
18.00000000000001
100
AcDbArc
 50
358.1089941602
 51
13.3554330507
  0
ARC
  5
A7
330
1F
100
AcDbEntity
  8
0
  6
Continuous
 62
     7
370
    25
100
AcDbCircle
 10
111.5581803797
 20
181.3019267957
 30
0.0
 40
42.498
100
AcDbArc
 50
72.8065048584
 51
75.1934951416
  0
ARC
  5
A8
330
1F
100
AcDbEntity
  8
0
  6
Continuous
 62
     7
370
    25
100
AcDbCircle
 10
139.6918802462
 20
212.8711353858
 30
0.0
 40
18.00000000000002
100
AcDbArc
 50
134.6445669493
 51
149.8910058398
  0
ARC
  5
A9
330
1F
100
AcDbEntity
  8
0
  6
Continuous
 62
     7
370
    25
100
AcDbCircle
 10
111.5581803797
 20
181.3019267957
 30
0.0
 40
47.00000000000002
100
AcDbArc
 50
69.2364672397
 51
70.7635327603
  0
ARC
  5
AA
330
1F
100
AcDbEntity
  8
0
  6
Continuous
 62
     7
370
    25
100
AcDbCircle
 10
110.298812062
 20
223.5693372986
 30
0.0
 40
18.00000000000002
100
AcDbArc
 50
350.1089941602
 51
5.3554330507
  0
ARC
  5
AB
330
1F
100
AcDbEntity
  8
0
  6
Continuous
 62
     7
370
    25
100
AcDbCircle
 10
111.5581803797
 20
181.3019267957
 30
0.0
 40
42.49799999999999
100
AcDbArc
 50
64.8065048584
 51
67.1934951416
  0
ARC
  5
AC
330
1F
100
AcDbEntity
  8
0
  6
Continuous
 62
     7
370
    25
100
AcDbCircle
 10
143.8116696674
 20
208.648451766
 30
0.0
 40
18.0
100
AcDbArc
 50
126.6445669493
 51
141.8910058398
  0
ARC
  5
AD
330
1F
100
AcDbEntity
  8
0
  6
Continuous
 62
     7
370
    25
100
AcDbCircle
 10
111.5581803797
 20
181.3019267957
 30
0.0
 40
46.99999999999999
100
AcDbArc
 50
61.2364672397
 51
62.7635327603
  0
ARC
  5
AE
330
1F
100
AcDbEntity
  8
0
  6
Continuous
 62
     7
370
    25
100
AcDbCircle
 10
116.1935547371
 20
223.3332639591
 30
0.0
 40
18.00000000000001
100
AcDbArc
 50
342.1089941602
 51
357.3554330507
  0
ARC
  5
AF
330
1F
100
AcDbEntity
  8
0
  6
Continuous
 62
     7
370
    25
100
AcDbCircle
 10
111.5581803797
 20
181.3019267957
 30
0.0
 40
42.49799999999999
100
AcDbArc
 50
56.8065048584
 51
59.1934951416
  0
ARC
  5
B0
330
1F
100
AcDbEntity
  8
0
  6
Continuous
 62
     7
370
    25
100
AcDbCircle
 10
147.3036816074
 20
203.8934991439
 30
0.0
 40
18.0
100
AcDbArc
 50
118.6445669493
 51
133.8910058398
  0
ARC
  5
B1
330
1F
100
AcDbEntity
  8
0
  6
Continuous
 62
     7
370
    25
100
AcDbCircle
 10
111.5581803797
 20
181.3019267957
 30
0.0
 40
46.99999999999999
100
AcDbArc
 50
53.2364672397
 51
54.7635327603
  0
ARC
  5
B2
330
1F
100
AcDbEntity
  8
0
  6
Continuous
 62
     7
370
    25
100
AcDbCircle
 10
121.998075123
 20
222.2790984517
 30
0.0
 40
17.99999999999999
100
AcDbArc
 50
334.1089941602
 51
349.3554330507
  0
ARC
  5
B3
330
1F
100
AcDbEntity
  8
0
  6
Continuous
 62
     7
370
    25
100
AcDbCircle
 10
111.5581803797
 20
181.3019267957
 30
0.0
 40
42.49799999999997
100
AcDbArc
 50
48.8065048584
 51
51.1934951416
  0
ARC
  5
B4
330
1F
100
AcDbEntity
  8
0
  6
Continuous
 62
     7
370
    25
100
AcDbCircle
 10
150.0999480259
 20
198.6988272635
 30
0.0
 40
18.0
100
AcDbArc
 50
110.6445669493
 51
125.8910058398
  0
ARC
  5
B5
330
1F
100
AcDbEntity
  8
0
  6
Continuous
 62
     7
370
    25
100
AcDbCircle
 10
111.5581803797
 20
181.3019267957
 30
0.0
 40
47.0
100
AcDbArc
 50
45.2364672397
 51
46.7635327603
  0
ARC
  5
B6
330
1F
100
AcDbEntity
  8
0
  6
Continuous
 62
     7
370
    25
100
AcDbCircle
 10
127.599394833
 20
220.4273589089
 30
0.0
 40
18.00000000000002
100
AcDbArc
 50
326.1089941602
 51
341.3554330507
  0
ARC
  5
B7
330
1F
100
AcDbEntity
  8
0
  6
Continuous
 62
     7
370
    25
100
AcDbCircle
 10
111.5581803797
 20
181.3019267957
 30
0.0
 40
42.49799999999998
100
AcDbArc
 50
40.8065048584
 51
43.1934951416
  0
ARC
  5
B8
330
1F
100
AcDbEntity
  8
0
  6
Continuous
 62
     7
370
    25
100
AcDbCircle
 10
152.1460427778
 20
193.1655445043
 30
0.0
 40
18.0
100
AcDbArc
 50
102.6445669493
 51
117.8910058398
  0
ARC
  5
B9
330
1F
100
AcDbEntity
  8
0
  6
Continuous
 62
     7
370
    25
100
AcDbCircle
 10
111.5581803797
 20
181.3019267957
 30
0.0
 40
47.0
100
AcDbArc
 50
37.2364672397
 51
38.7635327603
  0
ARC
  5
BA
330
1F
100
AcDbEntity
  8
0
  6
Continuous
 62
     7
370
    25
100
AcDbCircle
 10
132.8884905502
 20
217.8140873345
 30
0.0
 40
18.0
100
AcDbArc
 50
318.1089941602
 51
333.3554330507
  0
ARC
  5
BB
330
1F
100
AcDbEntity
  8
0
  6
Continuous
 62
     7
370
    25
100
AcDbCircle
 10
111.5581803797
 20
181.3019267957
 30
0.0
 40
42.49799999999998
100
AcDbArc
 50
32.8065048584
 51
35.1934951416
  0
ARC
  5
BC
330
1F
100
AcDbEntity
  8
0
  6
Continuous
 62
     7
370
    25
100
AcDbCircle
 10
153.4021409561
 20
187.401349921
 30
0.0
 40
18.00000000000002
100
AcDbArc
 50
94.6445669493
 51
109.8910058398
  0
ARC
  5
BD
330
1F
100
AcDbEntity
  8
0
  6
Continuous
 62
     7
370
    25
100
AcDbCircle
 10
111.5581803797
 20
181.3019267957
 30
0.0
 40
47.0
100
AcDbArc
 50
29.2364672397
 51
30.7635327603
  0
ARC
  5
BE
330
1F
100
AcDbEntity
  8
0
  6
Continuous
 62
     7
370
    25
100
AcDbCircle
 10
137.7624160429
 20
214.4901480872
 30
0.0
 40
17.99999999999999
100
AcDbArc
 50
310.1089941602
 51
325.3554330507
  0
ARC
  5
BF
330
1F
100
AcDbEntity
  8
0
  6
Continuous
 62
     7
370
    25
100
AcDbCircle
 10
111.5581803797
 20
181.3019267957
 30
0.0
 40
42.49799999999997
100
AcDbArc
 50
24.8065048584
 51
27.1934951416
  0
ARC
  5
C0
330
1F
100
AcDbEntity
  8
0
  6
Continuous
 62
     7
370
    25
100
AcDbCircle
 10
153.8437940386
 20
181.5184370046
 30
0.0
 40
18.00000000000003
100
AcDbArc
 50
86.6445669493
 51
101.8910058398
  0
ARC
  5
C1
330
1F
100
AcDbEntity
  8
0
  6
Continuous
 62
     7
370
    25
100
AcDbCircle
 10
111.5581803797
 20
181.3019267957
 30
0.0
 40
46.99999999999999
100
AcDbArc
 50
21.2364672397
 51
22.7635327603
  0
ARC
  5
C2
330
1F
100
AcDbEntity
  8
0
  6
Continuous
 62
     7
370
    25
100
AcDbCircle
 10
142.1263058952
 20
210.5202378634
 30
0.0
 40
17.99999999999998
100
AcDbArc
 50
302.1089941602
 51
317.3554330507
  0
ARC
  5
C3
330
1F
100
AcDbEntity
  8
0
  6
Continuous
 62
     7
370
    25
100
AcDbCircle
 10
111.5581803797
 20
181.3019267957
 30
0.0
 40
42.49799999999999
100
AcDbArc
 50
16.8065048584
 51
19.1934951416
  0
ARC
  5
C4
330
1F
100
AcDbEntity
  8
0
  6
Continuous
 62
     7
370
    25
100
AcDbCircle
 10
153.4624057504
 20
175.6313099632
 30
0.0
 40
18.0
100
AcDbArc
 50
78.6445669493
 51
93.8910058398
  0
ARC
  5
C5
330
1F
100
AcDbEntity
  8
0
  6
Continuous
 62
     7
370
    25
100
AcDbCircle
 10
111.5581803797
 20
181.3019267957
 30
0.0
 40
47.00000000000001
100
AcDbArc
 50
13.2364672397
 51
14.7635327603
  0
ARC
  5
C6
330
1F
100
AcDbEntity
  8
0
  6
Continuous
 62
     7
370
    25
100
AcDbCircle
 10
145.8952219551
 20
205.9816264501
 30
0.0
 40
18.00000000000001
100
AcDbArc
 50
294.1089941602
 51
309.3554330507
  0
ARC
  5
C7
330
1F
100
AcDbEntity
  8
0
  6
Continuous
 62
     7
370
    25
100
AcDbCircle
 10
111.5581803797
 20
181.3019267957
 30
0.0
 40
42.49799999999998
100
AcDbArc
 50
8.8065048584
 51
11.1934951416
  0
ARC
  5
C8
330
1F
100
AcDbEntity
  8
0
  6
Continuous
 62
     7
370
    25
100
AcDbCircle
 10
152.2653993807
 20
169.8545550282
 30
0.0
 40
18.00000000000002
100
AcDbArc
 50
70.6445669493
 51
85.8910058398
  0
ARC
  5
C9
330
1F
100
AcDbEntity
  8
0
  6
Continuous
 62
     7
370
    25
100
AcDbCircle
 10
111.5581803797
 20
181.3019267957
 30
0.0
 40
47.00000000000002
100
AcDbArc
 50
5.2364672397
 51
6.7635327603
  0
ARC
  5
CA
330
1F
100
AcDbEntity
  8
0
  6
Continuous
 62
     7
370
    25
100
AcDbCircle
 10
148.9958065585
 20
200.9626527558
 30
0.0
 40
17.99999999999999
100
AcDbArc
 50
286.1089941602
 51
301.3554330507
  0
ARC
  5
CB
330
1F
100
AcDbEntity
  8
0
  6
Continuous
 62
     7
370
    25
100
AcDbCircle
 10
111.5581803797
 20
181.3019267957
 30
0.0
 40
42.498
100
AcDbArc
 50
0.8065048584
 51
3.1934951416
  0
ARC
  5
CC
330
1F
100
AcDbEntity
  8
0
  6
Continuous
 62
     7
370
    25
100
AcDbCircle
 10
150.276073297
 20
164.3006101635
 30
0.0
 40
18.0
100
AcDbArc
 50
62.6445669493
 51
77.8910058398
  0
ARC
  5
CD
330
1F
100
AcDbEntity
  8
0
  6
Continuous
 62
     7
370
    25
100
AcDbCircle
 10
111.5581803797
 20
181.3019267957
 30
0.0
 40
46.99999999999999
100
AcDbArc
 50
357.2364672398
 51
358.7635327603
  0
ARC
  5
CE
330
1F
100
AcDbEntity
  8
0
  6
Continuous
 62
     7
370
    25
100
AcDbCircle
 10
151.367710353
 20
195.5610053943
 30
0.0
 40
18.0
100
AcDbArc
 50
278.1089941602
 51
293.3554330507
  0
ARC
  5
CF
330
1F
100
AcDbEntity
  8
0
  6
Continuous
 62
     7
370
    25
100
AcDbCircle
 10
111.5581803797
 20
181.3019267957
 30
0.0
 40
42.49799999999999
100
AcDbArc
 50
352.8065048584
 51
355.1934951416
  0
ARC
  5
D0
330
1F
100
AcDbEntity
  8
0
  6
Continuous
 62
     7
370
    25
100
AcDbCircle
 10
147.5331474685
 20
159.0775765884
 30
0.0
 40
18.0
100
AcDbArc
 50
54.6445669493
 51
69.8910058398
  0
ARC
  5
D1
330
1F
100
AcDbEntity
  8
0
  6
Continuous
 62
     7
370
    25
100
AcDbCircle
 10
111.5581803797
 20
181.3019267957
 30
0.0
 40
46.99999999999999
100
AcDbArc
 50
349.2364672398
 51
350.7635327603
  0
ARC
  5
D2
330
1F
100
AcDbEntity
  8
0
  6
Continuous
 62
     7
370
    25
100
AcDbCircle
 10
152.9647669293
 20
189.8818212875
 30
0.0
 40
18.0
100
AcDbArc
 50
270.1089941602
 51
285.3554330507
  0
ARC
  5
D3
330
1F
100
AcDbEntity
  8
0
  6
Continuous
 62
     7
370
    25
100
AcDbCircle
 10
111.5581803797
 20
181.3019267957
 30
0.0
 40
42.498
100
AcDbArc
 50
344.8065048584
 51
347.1934951416
  0
ARC
  5
D4
330
1F
100
AcDbEntity
  8
0
  6
Continuous
 62
     7
370
    25
100
AcDbCircle
 10
144.0900098266
 20
154.2871147102
 30
0.0
 40
18.00000000000004
100
AcDbArc
 50
46.6445669493
 51
61.8910058398
  0
ARC
  5
D5
330
1F
100
AcDbEntity
  8
0
  6
Continuous
 62
     7
370
    25
100
AcDbCircle
 10
111.5581803797
 20
181.3019267957
 30
0.0
 40
47.00000000000003
100
AcDbArc
 50
341.2364672398
 51
342.7635327603
  0
ARC
  5
D6
330
1F
100
AcDbEntity
  8
0
  6
Continuous
 62
     7
370
    25
100
AcDbCircle
 10
153.7558913977
 20
184.0356392938
 30
0.0
 40
17.99999999999999
100
AcDbArc
 50
262.1089941602
 51
277.3554330507
  0
ARC
  5
D7
330
1F
100
AcDbEntity
  8
0
  6
Continuous
 62
     7
370
    25
100
AcDbCircle
 10
111.5581803797
 20
181.3019267957
 30
0.0
 40
42.498
100
AcDbArc
 50
336.8065048584
 51
339.1934951416
  0
ARC
  5
D8
330
1F
100
AcDbEntity
  8
0
  6
Continuous
 62
     7
370
    25
100
AcDbCircle
 10
140.0136771289
 20
150.0224654203
 30
0.0
 40
18.00000000000002
100
AcDbArc
 50
38.6445669493
 51
53.8910058398
  0
ARC
  5
D9
330
1F
100
AcDbEntity
  8
0
  6
Continuous
 62
     7
370
    25
100
AcDbCircle
 10
111.5581803797
 20
181.3019267957
 30
0.0
 40
47.00000000000001
100
AcDbArc
 50
333.2364672398
 51
334.7635327603
  0
ARC
  5
DA
330
1F
100
AcDbEntity
  8
0
  6
Continuous
 62
     7
370
    25
100
AcDbCircle
 10
153.7256854203
 20
178.1362486959
 30
0.0
 40
17.99999999999999
100
AcDbArc
 50
254.1089941602
 51
269.3554330507
  0
ARC
  5
DB
330
1F
100
AcDbEntity
  8
0
  6
Continuous
 62
     7
370
    25
100
AcDbCircle
 10
111.5581803797
 20
181.3019267957
 30
0.0
 40
42.49799999999999
100
AcDbArc
 50
328.8065048584
 51
331.1934951416
  0
ARC
  5
DC
330
1F
100
AcDbEntity
  8
0
  6
Continuous
 62
     7
370
    25
100
AcDbCircle
 10
135.3834905547
 20
146.3666352663
 30
0.0
 40
18.0
100
AcDbArc
 50
30.6445669493
 51
45.8910058398
  0
ARC
  5
DD
330
1F
100
AcDbEntity
  8
0
  6
Continuous
 62
     7
370
    25
100
AcDbCircle
 10
111.5581803797
 20
181.3019267957
 30
0.0
 40
47.00000000000002
100
AcDbArc
 50
325.2364672398
 51
326.7635327603
  0
ARC
  5
DE
330
1F
100
AcDbEntity
  8
0
  6
Continuous
 62
     7
370
    25
100
AcDbCircle
 10
152.8747369221
 20
172.2984744213
 30
0.0
 40
18.0
100
AcDbArc
 50
246.1089941602
 51
261.3554330507
  0
ARC
  5
DF
330
1F
100
AcDbEntity
  8
0
  6
Continuous
 62
     7
370
    25
100
AcDbCircle
 10
111.5581803797
 20
181.3019267957
 30
0.0
 40
42.498
100
AcDbArc
 50
320.8065048584
 51
323.1934951416
  0
ARC
  5
E0
330
1F
100
AcDbEntity
  8
0
  6
Continuous
 62
     7
370
    25
100
AcDbCircle
 10
130.2895714187
 20
143.3907808236
 30
0.0
 40
17.99999999999998
100
AcDbArc
 50
22.6445669493
 51
37.8910058398
  0
ARC
  5
E1
330
1F
100
AcDbEntity
  8
0
  6
Continuous
 62
     7
370
    25
100
AcDbCircle
 10
111.5581803797
 20
181.3019267957
 30
0.0
 40
47.00000000000001
100
AcDbArc
 50
317.2364672398
 51
318.7635327603
  0
ARC
  5
E2
330
1F
100
AcDbEntity
  8
0
  6
Continuous
 62
     7
370
    25
100
AcDbCircle
 10
151.2196086477
 20
166.6359421059
 30
0.0
 40
18.00000000000001
100
AcDbArc
 50
238.1089941602
 51
253.3554330507
  0
ARC
  5
E3
330
1F
100
AcDbEntity
  8
0
  6
Continuous
 62
     7
370
    25
100
AcDbCircle
 10
111.5581803797
 20
181.3019267957
 30
0.0
 40
42.49800000000002
100
AcDbArc
 50
312.8065048584
 51
315.1934951416
  0
ARC
  5
E4
330
1F
100
AcDbEntity
  8
0
  6
Continuous
 62
     7
370
    25
100
AcDbCircle
 10
124.8310670629
 20
141.1528237139
 30
0.0
 40
17.99999999999999
100
AcDbArc
 50
14.6445669493
 51
29.8910058398
  0
ARC
  5
E5
330
1F
100
AcDbEntity
  8
0
  6
Continuous
 62
     7
370
    25
100
AcDbCircle
 10
111.5581803797
 20
181.3019267957
 30
0.0
 40
47.00000000000003
100
AcDbArc
 50
309.2364672398
 51
310.7635327603
  0
ARC
  5
E6
330
1F
100
AcDbEntity
  8
0
  6
Continuous
 62
     7
370
    25
100
AcDbCircle
 10
148.7925157863
 20
161.2588665002
 30
0.0
 40
18.00000000000002
100
AcDbArc
 50
230.1089941602
 51
245.3554330507
  0
ARC
  5
E7
330
1F
100
AcDbEntity
  8
0
  6
Continuous
 62
     7
370
    25
100
AcDbCircle
 10
111.5581803797
 20
181.3019267957
 30
0.0
 40
42.498
100
AcDbArc
 50
304.8065048584
 51
307.1934951416
  0
ARC
  5
E8
330
1F
100
AcDbEntity
  8
0
  6
Continuous
 62
     7
370
    25
100
AcDbCircle
 10
119.1142210654
 20
139.6963232268
 30
0.0
 40
18.0
100
AcDbArc
 50
6.6445669493
 51
21.8910058398
  0
ARC
  5
E9
330
1F
100
AcDbEntity
  8
0
  6
Continuous
 62
     7
370
    25
100
AcDbCircle
 10
111.5581803797
 20
181.3019267957
 30
0.0
 40
47.00000000000002
100
AcDbArc
 50
301.2364672398
 51
302.7635327603
  0
ARC
  5
EA
330
1F
100
AcDbEntity
  8
0
  6
Continuous
 62
     7
370
    25
100
AcDbCircle
 10
145.6406989396
 20
156.2719062645
 30
0.0
 40
18.00000000000001
100
AcDbArc
 50
222.1089941602
 51
237.3554330507
  0
ARC
  5
EB
330
1F
100
AcDbEntity
  8
0
  6
Continuous
 62
     7
370
    25
100
AcDbCircle
 10
111.5581803797
 20
181.3019267957
 30
0.0
 40
42.49800000000001
100
AcDbArc
 50
296.8065048584
 51
299.1934951416
  0
ARC
  5
EC
330
1F
100
AcDbEntity
  8
0
  6
Continuous
 62
     7
370
    25
100
AcDbCircle
 10
113.2503053309
 20
139.0496284875
 30
0.0
 40
18.00000000000001
100
AcDbArc
 50
358.6445669493
 51
13.8910058398
  0
ARC
  5
ED
330
1F
100
AcDbEntity
  8
0
  6
Continuous
 62
     7
370
    25
100
AcDbCircle
 10
111.5581803797
 20
181.3019267957
 30
0.0
 40
47.00000000000002
100
AcDbArc
 50
293.2364672398
 51
294.7635327603
  0
ARC
  5
EE
330
1F
100
AcDbEntity
  8
0
  6
Continuous
 62
     7
370
    25
100
AcDbCircle
 10
141.8255046374
 20
151.7721269072
 30
0.0
 40
18.00000000000001
100
AcDbArc
 50
214.1089941602
 51
229.3554330507
  0
ARC
  5
EF
330
1F
100
AcDbEntity
  8
0
  6
Continuous
 62
     7
370
    25
100
AcDbCircle
 10
111.5581803797
 20
181.3019267957
 30
0.0
 40
42.49800000000003
100
AcDbArc
 50
288.8065048584
 51
291.1934951416
  0
ARC
  5
F0
330
1F
100
AcDbEntity
  8
0
  6
Continuous
 62
     7
370
    25
100
AcDbCircle
 10
107.3534543089
 20
139.2253266735
 30
0.0
 40
18.0
100
AcDbArc
 50
350.6445669493
 51
5.8910058398
  0
ARC
  5
F1
330
1F
100
AcDbEntity
  8
0
  6
Continuous
 62
     7
370
    25
100
AcDbCircle
 10
111.5581803797
 20
181.3019267957
 30
0.0
 40
47.00000000000001
100
AcDbArc
 50
285.2364672398
 51
286.7635327603
  0
ARC
  5
F2
330
1F
100
AcDbEntity
  8
0
  6
Continuous
 62
     7
370
    25
100
AcDbCircle
 10
137.4211912972
 20
147.8471115151
 30
0.0
 40
17.99999999999999
100
AcDbArc
 50
206.1089941602
 51
221.3554330507
  0
ARC
  5
F3
330
1F
100
AcDbEntity
  8
0
  6
Continuous
 62
     7
370
    25
100
AcDbCircle
 10
111.5581803797
 20
181.3019267957
 30
0.0
 40
42.49800000000001
100
AcDbArc
 50
280.8065048584
 51
283.1934951416
  0
ARC
  5
F4
330
1F
100
AcDbEntity
  8
0
  6
Continuous
 62
     7
370
    25
100
AcDbCircle
 10
101.5384434971
 20
140.2199980194
 30
0.0
 40
18.00000000000001
100
AcDbArc
 50
342.6445669493
 51
357.8910058398
  0
ARC
  5
F5
330
1F
100
AcDbEntity
  8
0
  6
Continuous
 62
     7
370
    25
100
AcDbCircle
 10
111.5581803797
 20
181.3019267957
 30
0.0
 40
47.00000000000001
100
AcDbArc
 50
277.2364672398
 51
278.7635327603
  0
ARC
  5
F6
330
1F
100
AcDbEntity
  8
0
  6
Continuous
 62
     7
370
    25
100
AcDbCircle
 10
132.5134838681
 20
144.5732560481
 30
0.0
 40
18.0
100
AcDbArc
 50
198.1089941602
 51
213.3554330507
  0
ARC
  5
F7
330
1F
100
AcDbEntity
  8
0
  6
Continuous
 62
     7
370
    25
100
AcDbCircle
 10
111.5581803797
 20
181.3019267957
 30
0.0
 40
42.49800000000001
100
AcDbArc
 50
272.8065048584
 51
275.1934951416
  0
ARC
  5
F8
330
1F
100
AcDbEntity
  8
0
  6
Continuous
 62
     7
370
    25
100
AcDbCircle
 10
95.9184554665
 20
142.014282379
 30
0.0
 40
18.00000000000001
100
AcDbArc
 50
334.6445669493
 51
349.8910058398
  0
ARC
  5
F9
330
1F
100
AcDbEntity
  8
0
  6
Continuous
 62
     7
370
    25
100
AcDbCircle
 10
111.5581803797
 20
181.3019267957
 30
0.0
 40
47.0
100
AcDbArc
 50
269.2364672398
 51
270.7635327603
  0
ARC
  5
FA
330
1F
100
AcDbEntity
  8
0
  6
Continuous
 62
     7
370
    25
100
AcDbCircle
 10
127.197905293
 20
142.014282379
 30
0.0
 40
17.99999999999998
100
AcDbArc
 50
190.1089941602
 51
205.3554330507
  0
ARC
  5
FB
330
1F
100
AcDbEntity
  8
0
  6
Continuous
 62
     7
370
    25
100
AcDbCircle
 10
111.5581803797
 20
181.3019267957
 30
0.0
 40
42.49800000000001
100
AcDbArc
 50
264.8065048584
 51
267.1934951416
  0
ARC
  5
FC
330
1F
100
AcDbEntity
  8
0
  6
Continuous
 62
     7
370
    25
100
AcDbCircle
 10
90.6028768914
 20
144.5732560481
 30
0.0
 40
18.00000000000001
100
AcDbArc
 50
326.6445669493
 51
341.8910058398
  0
ARC
  5
FD
330
1F
100
AcDbEntity
  8
0
  6
Continuous
 62
     7
370
    25
100
AcDbCircle
 10
111.5581803797
 20
181.3019267957
 30
0.0
 40
47.00000000000004
100
AcDbArc
 50
261.2364672398
 51
262.7635327603
  0
ARC
  5
FE
330
1F
100
AcDbEntity
  8
0
  6
Continuous
 62
     7
370
    25
100
AcDbCircle
 10
121.5779172624
 20
140.2199980194
 30
0.0
 40
18.00000000000001
100
AcDbArc
 50
182.1089941602
 51
197.3554330507
  0
ARC
  5
FF
330
1F
100
AcDbEntity
  8
0
  6
Continuous
 62
     7
370
    25
100
AcDbCircle
 10
111.5581803797
 20
181.3019267957
 30
0.0
 40
42.49799999999999
100
AcDbArc
 50
256.8065048584
 51
259.1934951416
  0
ARC
  5
100
330
1F
100
AcDbEntity
  8
0
  6
Continuous
 62
     7
370
    25
100
AcDbCircle
 10
85.6951694623
 20
147.8471115151
 30
0.0
 40
18.0
100
AcDbArc
 50
318.6445669493
 51
333.8910058398
  0
ARC
  5
101
330
1F
100
AcDbEntity
  8
0
  6
Continuous
 62
     7
370
    25
100
AcDbCircle
 10
111.5581803797
 20
181.3019267957
 30
0.0
 40
47.00000000000001
100
AcDbArc
 50
253.2364672398
 51
254.7635327603
  0
ARC
  5
102
330
1F
100
AcDbEntity
  8
0
  6
Continuous
 62
     7
370
    25
100
AcDbCircle
 10
115.7629064506
 20
139.2253266735
 30
0.0
 40
17.99999999999999
100
AcDbArc
 50
174.1089941602
 51
189.3554330507
  0
ARC
  5
103
330
1F
100
AcDbEntity
  8
0
  6
Continuous
 62
     7
370
    25
100
AcDbCircle
 10
111.5581803797
 20
181.3019267957
 30
0.0
 40
42.49800000000003
100
AcDbArc
 50
248.8065048584
 51
251.1934951416
  0
ARC
  5
104
330
1F
100
AcDbEntity
  8
0
  6
Continuous
 62
     7
370
    25
100
AcDbCircle
 10
81.290856122
 20
151.7721269072
 30
0.0
 40
18.0
100
AcDbArc
 50
310.6445669493
 51
325.8910058398
  0
ARC
  5
105
330
1F
100
AcDbEntity
  8
0
  6
Continuous
 62
     7
370
    25
100
AcDbCircle
 10
111.5581803797
 20
181.3019267957
 30
0.0
 40
47.00000000000001
100
AcDbArc
 50
245.2364672398
 51
246.7635327603
  0
ARC
  5
106
330
1F
100
AcDbEntity
  8
0
  6
Continuous
 62
     7
370
    25
100
AcDbCircle
 10
109.8660554286
 20
139.0496284875
 30
0.0
 40
18.00000000000001
100
AcDbArc
 50
166.1089941602
 51
181.3554330507
  0
ARC
  5
107
330
1F
100
AcDbEntity
  8
0
  6
Continuous
 62
     7
370
    25
100
AcDbCircle
 10
111.5581803797
 20
181.3019267957
 30
0.0
 40
42.49800000000001
100
AcDbArc
 50
240.8065048584
 51
243.1934951416
  0
ARC
  5
108
330
1F
100
AcDbEntity
  8
0
  6
Continuous
 62
     7
370
    25
100
AcDbCircle
 10
77.4756618199
 20
156.2719062645
 30
0.0
 40
18.00000000000002
100
AcDbArc
 50
302.6445669493
 51
317.8910058398
  0
ARC
  5
109
330
1F
100
AcDbEntity
  8
0
  6
Continuous
 62
     7
370
    25
100
AcDbCircle
 10
111.5581803797
 20
181.3019267957
 30
0.0
 40
47.00000000000004
100
AcDbArc
 50
237.2364672398
 51
238.7635327603
  0
ARC
  5
10A
330
1F
100
AcDbEntity
  8
0
  6
Continuous
 62
     7
370
    25
100
AcDbCircle
 10
104.0021396941
 20
139.6963232268
 30
0.0
 40
18.0
100
AcDbArc
 50
158.1089941602
 51
173.3554330507
  0
ARC
  5
10B
330
1F
100
AcDbEntity
  8
0
  6
Continuous
 62
     7
370
    25
100
AcDbCircle
 10
111.5581803797
 20
181.3019267957
 30
0.0
 40
42.49799999999999
100
AcDbArc
 50
232.8065048584
 51
235.1934951416
  0
ARC
  5
10C
330
1F
100
AcDbEntity
  8
0
  6
Continuous
 62
     7
370
    25
100
AcDbCircle
 10
74.3238449732
 20
161.2588665002
 30
0.0
 40
18.00000000000002
100
AcDbArc
 50
294.6445669493
 51
309.8910058398
  0
ARC
  5
10D
330
1F
100
AcDbEntity
  8
0
  6
Continuous
 62
     7
370
    25
100
AcDbCircle
 10
111.5581803797
 20
181.3019267957
 30
0.0
 40
47.00000000000002
100
AcDbArc
 50
229.2364672398
 51
230.7635327603
  0
ARC
  5
10E
330
1F
100
AcDbEntity
  8
0
  6
Continuous
 62
     7
370
    25
100
AcDbCircle
 10
98.2852936966
 20
141.1528237139
 30
0.0
 40
18.00000000000001
100
AcDbArc
 50
150.1089941602
 51
165.3554330507
  0
ARC
  5
10F
330
1F
100
AcDbEntity
  8
0
  6
Continuous
 62
     7
370
    25
100
AcDbCircle
 10
111.5581803797
 20
181.3019267957
 30
0.0
 40
42.49800000000001
100
AcDbArc
 50
224.8065048584
 51
227.1934951416
  0
ARC
  5
110
330
1F
100
AcDbEntity
  8
0
  6
Continuous
 62
     7
370
    25
100
AcDbCircle
 10
71.8967521118
 20
166.6359421059
 30
0.0
 40
18.00000000000001
100
AcDbArc
 50
286.6445669493
 51
301.8910058398
  0
ARC
  5
111
330
1F
100
AcDbEntity
  8
0
  6
Continuous
 62
     7
370
    25
100
AcDbCircle
 10
111.5581803797
 20
181.3019267957
 30
0.0
 40
47.00000000000001
100
AcDbArc
 50
221.2364672398
 51
222.7635327603
  0
ARC
  5
112
330
1F
100
AcDbEntity
  8
0
  6
Continuous
 62
     7
370
    25
100
AcDbCircle
 10
92.8267893408
 20
143.3907808236
 30
0.0
 40
17.99999999999999
100
AcDbArc
 50
142.1089941602
 51
157.3554330507
  0
ARC
  5
113
330
1F
100
AcDbEntity
  8
0
  6
Continuous
 62
     7
370
    25
100
AcDbCircle
 10
111.5581803797
 20
181.3019267957
 30
0.0
 40
42.498
100
AcDbArc
 50
216.8065048584
 51
219.1934951416
  0
ARC
  5
114
330
1F
100
AcDbEntity
  8
0
  6
Continuous
 62
     7
370
    25
100
AcDbCircle
 10
70.2416238374
 20
172.2984744213
 30
0.0
 40
17.99999999999999
100
AcDbArc
 50
278.6445669493
 51
293.8910058398
  0
ARC
  5
115
330
1F
100
AcDbEntity
  8
0
  6
Continuous
 62
     7
370
    25
100
AcDbCircle
 10
111.5581803797
 20
181.3019267957
 30
0.0
 40
47.00000000000003
100
AcDbArc
 50
213.2364672398
 51
214.7635327603
  0
ARC
  5
116
330
1F
100
AcDbEntity
  8
0
  6
Continuous
 62
     7
370
    25
100
AcDbCircle
 10
87.7328702048
 20
146.3666352663
 30
0.0
 40
18.0
100
AcDbArc
 50
134.1089941602
 51
149.3554330507
  0
ARC
  5
117
330
1F
100
AcDbEntity
  8
0
  6
Continuous
 62
     7
370
    25
100
AcDbCircle
 10
111.5581803797
 20
181.3019267957
 30
0.0
 40
42.49800000000001
100
AcDbArc
 50
208.8065048584
 51
211.1934951416
  0
ARC
  5
118
330
1F
100
AcDbEntity
  8
0
  6
Continuous
 62
     7
370
    25
100
AcDbCircle
 10
69.3906753392
 20
178.1362486959
 30
0.0
 40
17.99999999999999
100
AcDbArc
 50
270.6445669493
 51
285.8910058398
  0
ARC
  5
119
330
1F
100
AcDbEntity
  8
0
  6
Continuous
 62
     7
370
    25
100
AcDbCircle
 10
111.5581803797
 20
181.3019267957
 30
0.0
 40
47.00000000000002
100
AcDbArc
 50
205.2364672398
 51
206.7635327603
  0
ARC
  5
11A
330
1F
100
AcDbEntity
  8
0
  6
Continuous
 62
     7
370
    25
100
AcDbCircle
 10
83.1026836306
 20
150.0224654203
 30
0.0
 40
18.00000000000002
100
AcDbArc
 50
126.1089941602
 51
141.3554330507
  0
ARC
  5
11B
330
1F
100
AcDbEntity
  8
0
  6
Continuous
 62
     7
370
    25
100
AcDbCircle
 10
111.5581803797
 20
181.3019267957
 30
0.0
 40
42.49800000000001
100
AcDbArc
 50
200.8065048584
 51
203.1934951416
  0
ARC
  5
11C
330
1F
100
AcDbEntity
  8
0
  6
Continuous
 62
     7
370
    25
100
AcDbCircle
 10
69.3604693618
 20
184.0356392938
 30
0.0
 40
17.99999999999997
100
AcDbArc
 50
262.6445669493
 51
277.8910058398
  0
ARC
  5
11D
330
1F
100
AcDbEntity
  8
0
  6
Continuous
 62
     7
370
    25
100
AcDbCircle
 10
111.5581803797
 20
181.3019267957
 30
0.0
 40
47.00000000000001
100
AcDbArc
 50
197.2364672398
 51
198.7635327603
  0
ARC
  5
11E
330
1F
100
AcDbEntity
  8
0
  6
Continuous
 62
     7
370
    25
100
AcDbCircle
 10
79.0263509329
 20
154.2871147102
 30
0.0
 40
18.00000000000001
100
AcDbArc
 50
118.1089941602
 51
133.3554330507
  0
ARC
  5
11F
330
1F
100
AcDbEntity
  8
0
  6
Continuous
 62
     7
370
    25
100
AcDbCircle
 10
111.5581803797
 20
181.3019267957
 30
0.0
 40
42.498
100
AcDbArc
 50
192.8065048584
 51
195.1934951416
  0
ARC
  5
120
330
1F
100
AcDbEntity
  8
0
  6
Continuous
 62
     7
370
    25
100
AcDbCircle
 10
70.1515938302
 20
189.8818212875
 30
0.0
 40
18.00000000000002
100
AcDbArc
 50
254.6445669493
 51
269.8910058398
  0
ARC
  5
121
330
1F
100
AcDbEntity
  8
0
  6
Continuous
 62
     7
370
    25
100
AcDbCircle
 10
111.5581803797
 20
181.3019267957
 30
0.0
 40
47.00000000000001
100
AcDbArc
 50
189.2364672398
 51
190.7635327603
  0
ARC
  5
122
330
1F
100
AcDbEntity
  8
0
  6
Continuous
 62
     7
370
    25
100
AcDbCircle
 10
75.583213291
 20
159.0775765884
 30
0.0
 40
18.00000000000002
100
AcDbArc
 50
110.1089941602
 51
125.3554330507
  0
ARC
  5
123
330
1F
100
AcDbEntity
  8
0
  6
Continuous
 62
     7
370
    25
100
AcDbCircle
 10
111.5581803797
 20
181.3019267957
 30
0.0
 40
42.49799999999999
100
AcDbArc
 50
184.8065048584
 51
187.1934951416
  0
ARC
  5
124
330
1F
100
AcDbEntity
  8
0
  6
Continuous
 62
     7
370
    25
100
AcDbCircle
 10
71.7486504064
 20
195.5610053943
 30
0.0
 40
18.00000000000002
100
AcDbArc
 50
246.6445669493
 51
261.8910058398
  0
ARC
  5
125
330
1F
100
AcDbEntity
  8
0
  6
Continuous
 62
     7
370
    25
100
AcDbCircle
 10
111.5581803797
 20
181.3019267957
 30
0.0
 40
47.00000000000001
100
AcDbArc
 50
181.2364672398
 51
182.7635327603
  0
ARC
  5
126
330
1F
100
AcDbEntity
  8
0
  6
Continuous
 62
     7
370
    25
100
AcDbCircle
 10
72.8402874625
 20
164.3006101635
 30
0.0
 40
18.0
100
AcDbArc
 50
102.1089941602
 51
117.3554330507
  0
ARC
  5
127
330
1F
100
AcDbEntity
  8
0
  6
Continuous
 62
     7
370
    25
100
AcDbCircle
 10
111.5581803797
 20
181.3019267957
 30
0.0
 40
42.498
100
AcDbArc
 50
176.8065048584
 51
179.1934951416
  0
ARC
  5
128
330
1F
100
AcDbEntity
  8
0
  6
Continuous
 62
     7
370
    25
100
AcDbCircle
 10
74.120554201
 20
200.9626527558
 30
0.0
 40
18.0
100
AcDbArc
 50
238.6445669493
 51
253.8910058398
  0
CIRCLE
  5
129
330
1F
100
AcDbEntity
  8
0
  6
Continuous
 62
     7
370
    25
100
AcDbCircle
 10
111.5581803797
 20
181.3019267957
 30
0.0
 40
5.000000000000014
  0
ENDSEC
  0
SECTION
  2
OBJECTS
  0
DICTIONARY
  5
C
330
0
100
AcDbDictionary
281
     1
  3
ACAD_GROUP
350
D
  3
ACAD_LAYOUT
350
1A
  3
ACAD_MLINESTYLE
350
17
  3
ACAD_PLOTSETTINGS
350
19
  3
ACAD_PLOTSTYLENAME
350
E
  3
ACAD_SCALELIST
350
47
  0
DICTIONARY
  5
D
102
{ACAD_REACTORS
330
C
102
}
330
C
100
AcDbDictionary
281
     1
  0
DICTIONARY
  5
1A
102
{ACAD_REACTORS
330
C
102
}
330
C
100
AcDbDictionary
281
     1
  3
Layout1
350
1E
  3
Layout2
350
26
  3
Model
350
22
  0
DICTIONARY
  5
17
102
{ACAD_REACTORS
330
C
102
}
330
C
100
AcDbDictionary
281
     1
  3
Standard
350
18
  0
DICTIONARY
  5
19
102
{ACAD_REACTORS
330
C
102
}
330
C
100
AcDbDictionary
281
     1
  0
ACDBDICTIONARYWDFLT
  5
E
102
{ACAD_REACTORS
330
C
102
}
330
C
100
AcDbDictionary
281
     1
  3
Normal
350
F
100
AcDbDictionaryWithDefault
340
F
  0
DICTIONARY
  5
47
102
{ACAD_REACTORS
330
C
102
}
330
C
100
AcDbDictionary
281
     1
  3
A0
350
48
  3
A1
350
49
  3
A2
350
4A
  3
A3
350
4B
  3
A4
350
4C
  3
A5
350
4D
  3
A6
350
4E
  3
A7
350
4F
  3
A8
350
50
  3
A9
350
51
  3
B0
350
52
  3
B1
350
53
  3
B2
350
54
  3
B3
350
55
  3
B4
350
56
  3
B5
350
57
  3
B6
350
58
  3
B7
350
59
  3
B8
350
5A
  3
B9
350
5B
  3
C0
350
5C
  3
C1
350
5D
  3
C2
350
5E
  3
C3
350
5F
  3
C4
350
60
  3
C5
350
61
  3
C6
350
62
  3
C7
350
63
  3
C8
350
64
  3
C9
350
65
  3
D0
350
66
  3
D1
350
67
  3
D2
350
68
  0
LAYOUT
  5
1E
102
{ACAD_REACTORS
330
1A
102
}
330
1A
100
AcDbPlotSettings
  1

  2
none_device
  4

  6

 40
0.0
 41
0.0
 42
0.0
 43
0.0
 44
0.0
 45
0.0
 46
0.0
 47
0.0
 48
0.0
 49
0.0
140
0.0
141
0.0
142
1.0
143
1.0
 70
   688
 72
     1
 73
     0
 74
     5
  7

 75
    16
147
1.0
148
0.0
149
0.0
100
AcDbLayout
  1
Layout1
 70
     1
 71
     1
 10
0.0
 20
0.0
 11
420.0
 21
297.0
 12
0.0
 22
0.0
 32
0.0
 14
1.0000000000E+20
 24
1.0000000000E+20
 34
1.0000000000E+20
 15
-1.0000000000E+20
 25
-1.0000000000E+20
 35
-1.0000000000E+20
146
0.0
 13
0.0
 23
0.0
 33
0.0
 16
1.0
 26
0.0
 36
0.0
 17
0.0
 27
1.0
 37
0.0
 76
     0
330
1B
  0
LAYOUT
  5
26
102
{ACAD_REACTORS
330
1A
102
}
330
1A
100
AcDbPlotSettings
  1

  2
none_device
  4

  6

 40
0.0
 41
0.0
 42
0.0
 43
0.0
 44
0.0
 45
0.0
 46
0.0
 47
0.0
 48
0.0
 49
0.0
140
0.0
141
0.0
142
1.0
143
1.0
 70
   688
 72
     1
 73
     0
 74
     5
  7

 75
    16
147
1.0
148
0.0
149
0.0
100
AcDbLayout
  1
Layout2
 70
     1
 71
     2
 10
0.0
 20
0.0
 11
0.0
 21
0.0
 12
0.0
 22
0.0
 32
0.0
 14
0.0
 24
0.0
 34
0.0
 15
0.0
 25
0.0
 35
0.0
146
0.0
 13
0.0
 23
0.0
 33
0.0
 16
1.0
 26
0.0
 36
0.0
 17
0.0
 27
1.0
 37
0.0
 76
     0
330
23
  0
LAYOUT
  5
22
102
{ACAD_REACTORS
330
1A
102
}
330
1A
100
AcDbPlotSettings
  1

  2
none_device
  4
Letter_(8.50_x_11.00_Inches)
  6

 40
6.35
 41
6.35
 42
6.35000508
 43
6.35000508
 44
215.9
 45
279.4
 46
0.0
 47
0.0
 48
0.0
 49
0.0
140
0.0
141
0.0
142
1.0
143
1.0
 70
  1712
 72
     1
 73
     0
 74
     0
  7

 75
     0
147
1.0
148
0.0
149
0.0
100
AcDbLayout
  1
Model
 70
     1
 71
     0
 10
0.0
 20
0.0
 11
210.0
 21
297.0
 12
0.0
 22
0.0
 32
0.0
 14
0.0
 24
0.0
 34
0.0
 15
210.0
 25
297.0
 35
0.0
146
0.0
 13
0.0
 23
0.0
 33
0.0
 16
1.0
 26
0.0
 36
0.0
 17
0.0
 27
1.0
 37
0.0
 76
     0
330
1F
331
29
  0
MLINESTYLE
  5
18
102
{ACAD_REACTORS
330
17
102
}
330
17
100
AcDbMlineStyle
  2
Standard
 70
     0
  3

 62
   256
 51
90.0
 52
90.0
 71
     2
 49
0.5
 62
   256
  6
BYLAYER
 49
-0.5
 62
   256
  6
BYLAYER
  0
ACDBPLACEHOLDER
  5
F
102
{ACAD_REACTORS
330
E
102
}
330
E
  0
SCALE
  5
48
102
{ACAD_REACTORS
330
47
102
}
330
47
100
AcDbScale
 70
     0
300
1:1
140
1.0
141
1.0
290
     1
  0
SCALE
  5
49
102
{ACAD_REACTORS
330
47
102
}
330
47
100
AcDbScale
 70
     0
300
1:2
140
1.0
141
2.0
290
     0
  0
SCALE
  5
4A
102
{ACAD_REACTORS
330
47
102
}
330
47
100
AcDbScale
 70
     0
300
1:4
140
1.0
141
4.0
290
     0
  0
SCALE
  5
4B
102
{ACAD_REACTORS
330
47
102
}
330
47
100
AcDbScale
 70
     0
300
1:5
140
1.0
141
5.0
290
     0
  0
SCALE
  5
4C
102
{ACAD_REACTORS
330
47
102
}
330
47
100
AcDbScale
 70
     0
300
1:8
140
1.0
141
8.0
290
     0
  0
SCALE
  5
4D
102
{ACAD_REACTORS
330
47
102
}
330
47
100
AcDbScale
 70
     0
300
1:10
140
1.0
141
10.0
290
     0
  0
SCALE
  5
4E
102
{ACAD_REACTORS
330
47
102
}
330
47
100
AcDbScale
 70
     0
300
1:16
140
1.0
141
16.0
290
     0
  0
SCALE
  5
4F
102
{ACAD_REACTORS
330
47
102
}
330
47
100
AcDbScale
 70
     0
300
1:20
140
1.0
141
20.0
290
     0
  0
SCALE
  5
50
102
{ACAD_REACTORS
330
47
102
}
330
47
100
AcDbScale
 70
     0
300
1:30
140
1.0
141
30.0
290
     0
  0
SCALE
  5
51
102
{ACAD_REACTORS
330
47
102
}
330
47
100
AcDbScale
 70
     0
300
1:40
140
1.0
141
40.0
290
     0
  0
SCALE
  5
52
102
{ACAD_REACTORS
330
47
102
}
330
47
100
AcDbScale
 70
     0
300
1:50
140
1.0
141
50.0
290
     0
  0
SCALE
  5
53
102
{ACAD_REACTORS
330
47
102
}
330
47
100
AcDbScale
 70
     0
300
1:100
140
1.0
141
100.0
290
     0
  0
SCALE
  5
54
102
{ACAD_REACTORS
330
47
102
}
330
47
100
AcDbScale
 70
     0
300
2:1
140
2.0
141
1.0
290
     0
  0
SCALE
  5
55
102
{ACAD_REACTORS
330
47
102
}
330
47
100
AcDbScale
 70
     0
300
4:1
140
4.0
141
1.0
290
     0
  0
SCALE
  5
56
102
{ACAD_REACTORS
330
47
102
}
330
47
100
AcDbScale
 70
     0
300
8:1
140
8.0
141
1.0
290
     0
  0
SCALE
  5
57
102
{ACAD_REACTORS
330
47
102
}
330
47
100
AcDbScale
 70
     0
300
10:1
140
10.0
141
1.0
290
     0
  0
SCALE
  5
58
102
{ACAD_REACTORS
330
47
102
}
330
47
100
AcDbScale
 70
     0
300
100:1
140
100.0
141
1.0
290
     0
  0
SCALE
  5
59
102
{ACAD_REACTORS
330
47
102
}
330
47
100
AcDbScale
 70
     0
300
1/128" = 1'-0"
140
0.0078125
141
12.0
290
     0
  0
SCALE
  5
5A
102
{ACAD_REACTORS
330
47
102
}
330
47
100
AcDbScale
 70
     0
300
1/64" = 1'-0"
140
0.015625
141
12.0
290
     0
  0
SCALE
  5
5B
102
{ACAD_REACTORS
330
47
102
}
330
47
100
AcDbScale
 70
     0
300
1/32" = 1'-0"
140
0.03125
141
12.0
290
     0
  0
SCALE
  5
5C
102
{ACAD_REACTORS
330
47
102
}
330
47
100
AcDbScale
 70
     0
300
1/16" = 1'-0"
140
0.0625
141
12.0
290
     0
  0
SCALE
  5
5D
102
{ACAD_REACTORS
330
47
102
}
330
47
100
AcDbScale
 70
     0
300
3/32" = 1'-0"
140
0.09375
141
12.0
290
     0
  0
SCALE
  5
5E
102
{ACAD_REACTORS
330
47
102
}
330
47
100
AcDbScale
 70
     0
300
1/8" = 1'-0"
140
0.125
141
12.0
290
     0
  0
SCALE
  5
5F
102
{ACAD_REACTORS
330
47
102
}
330
47
100
AcDbScale
 70
     0
300
3/16" = 1'-0"
140
0.1875
141
12.0
290
     0
  0
SCALE
  5
60
102
{ACAD_REACTORS
330
47
102
}
330
47
100
AcDbScale
 70
     0
300
1/4" = 1'-0"
140
0.25
141
12.0
290
     0
  0
SCALE
  5
61
102
{ACAD_REACTORS
330
47
102
}
330
47
100
AcDbScale
 70
     0
300
3/8" = 1'-0"
140
0.375
141
12.0
290
     0
  0
SCALE
  5
62
102
{ACAD_REACTORS
330
47
102
}
330
47
100
AcDbScale
 70
     0
300
1/2" = 1'-0"
140
0.5
141
12.0
290
     0
  0
SCALE
  5
63
102
{ACAD_REACTORS
330
47
102
}
330
47
100
AcDbScale
 70
     0
300
3/4" = 1'-0"
140
0.75
141
12.0
290
     0
  0
SCALE
  5
64
102
{ACAD_REACTORS
330
47
102
}
330
47
100
AcDbScale
 70
     0
300
1" = 1'-0"
140
1.0
141
12.0
290
     0
  0
SCALE
  5
65
102
{ACAD_REACTORS
330
47
102
}
330
47
100
AcDbScale
 70
     0
300
1-1/2" = 1'-0"
140
1.5
141
12.0
290
     0
  0
SCALE
  5
66
102
{ACAD_REACTORS
330
47
102
}
330
47
100
AcDbScale
 70
     0
300
3" = 1'-0"
140
3.0
141
12.0
290
     0
  0
SCALE
  5
67
102
{ACAD_REACTORS
330
47
102
}
330
47
100
AcDbScale
 70
     0
300
6" = 1'-0"
140
6.0
141
12.0
290
     0
  0
SCALE
  5
68
102
{ACAD_REACTORS
330
47
102
}
330
47
100
AcDbScale
 70
     0
300
1'-0" = 1'-0"
140
12.0
141
12.0
290
     0
  0
ENDSEC
  0
EOF
